<?xml version="1.0" encoding="utf-8" standalone="no"?>
<!DOCTYPE svg PUBLIC "-//W3C//DTD SVG 1.1//EN"
  "http://www.w3.org/Graphics/SVG/1.1/DTD/svg11.dtd">
<svg xmlns:xlink="http://www.w3.org/1999/xlink" width="504pt" height="288pt" viewBox="0 0 504 288" xmlns="http://www.w3.org/2000/svg" version="1.1">
 <metadata>
  <rdf:RDF xmlns:dc="http://purl.org/dc/elements/1.1/" xmlns:cc="http://creativecommons.org/ns#" xmlns:rdf="http://www.w3.org/1999/02/22-rdf-syntax-ns#">
   <cc:Work>
    <dc:type rdf:resource="http://purl.org/dc/dcmitype/StillImage"/>
    <dc:date>2026-02-02T14:36:40.594624</dc:date>
    <dc:format>image/svg+xml</dc:format>
    <dc:creator>
     <cc:Agent>
      <dc:title>Matplotlib v3.10.8, https://matplotlib.org/</dc:title>
     </cc:Agent>
    </dc:creator>
   </cc:Work>
  </rdf:RDF>
 </metadata>
 <defs>
  <style type="text/css">*{stroke-linejoin: round; stroke-linecap: butt}</style>
 </defs>
 <g id="figure_1">
  <g id="patch_1">
   <path d="M 0 288 
L 504 288 
L 504 0 
L 0 0 
z
" style="fill: #ffffff"/>
  </g>
  <g id="axes_1">
   <g id="patch_2">
    <path d="M 56 246.04 
L 493.2 246.04 
L 493.2 26.88 
L 56 26.88 
z
" style="fill: #ffffff"/>
   </g>
   <g id="matplotlib.axis_1">
    <g id="xtick_1">
     <g id="line2d_1">
      <defs>
       <path id="ma2807be3b6" d="M 0 0 
L 0 3.5 
" style="stroke: #000000; stroke-width: 0.8"/>
      </defs>
      <g>
       <use xlink:href="#ma2807be3b6" x="75.872727" y="246.04" style="stroke: #000000; stroke-width: 0.8"/>
      </g>
     </g>
     <g id="text_1">
      <!-- 0 -->
      <g transform="translate(72.691477 260.638438) scale(0.1 -0.1)">
       <defs>
        <path id="DejaVuSans-30" d="M 2034 4250 
Q 1547 4250 1301 3770 
Q 1056 3291 1056 2328 
Q 1056 1369 1301 889 
Q 1547 409 2034 409 
Q 2525 409 2770 889 
Q 3016 1369 3016 2328 
Q 3016 3291 2770 3770 
Q 2525 4250 2034 4250 
z
M 2034 4750 
Q 2819 4750 3233 4129 
Q 3647 3509 3647 2328 
Q 3647 1150 3233 529 
Q 2819 -91 2034 -91 
Q 1250 -91 836 529 
Q 422 1150 422 2328 
Q 422 3509 836 4129 
Q 1250 4750 2034 4750 
z
" transform="scale(0.015625)"/>
       </defs>
       <use xlink:href="#DejaVuSans-30"/>
      </g>
     </g>
    </g>
    <g id="xtick_2">
     <g id="line2d_2">
      <g>
       <use xlink:href="#ma2807be3b6" x="155.763088" y="246.04" style="stroke: #000000; stroke-width: 0.8"/>
      </g>
     </g>
     <g id="text_2">
      <!-- 2 -->
      <g transform="translate(152.581838 260.638438) scale(0.1 -0.1)">
       <defs>
        <path id="DejaVuSans-32" d="M 1228 531 
L 3431 531 
L 3431 0 
L 469 0 
L 469 531 
Q 828 903 1448 1529 
Q 2069 2156 2228 2338 
Q 2531 2678 2651 2914 
Q 2772 3150 2772 3378 
Q 2772 3750 2511 3984 
Q 2250 4219 1831 4219 
Q 1534 4219 1204 4116 
Q 875 4013 500 3803 
L 500 4441 
Q 881 4594 1212 4672 
Q 1544 4750 1819 4750 
Q 2544 4750 2975 4387 
Q 3406 4025 3406 3419 
Q 3406 3131 3298 2873 
Q 3191 2616 2906 2266 
Q 2828 2175 2409 1742 
Q 1991 1309 1228 531 
z
" transform="scale(0.015625)"/>
       </defs>
       <use xlink:href="#DejaVuSans-32"/>
      </g>
     </g>
    </g>
    <g id="xtick_3">
     <g id="line2d_3">
      <g>
       <use xlink:href="#ma2807be3b6" x="235.653449" y="246.04" style="stroke: #000000; stroke-width: 0.8"/>
      </g>
     </g>
     <g id="text_3">
      <!-- 4 -->
      <g transform="translate(232.472199 260.638438) scale(0.1 -0.1)">
       <defs>
        <path id="DejaVuSans-34" d="M 2419 4116 
L 825 1625 
L 2419 1625 
L 2419 4116 
z
M 2253 4666 
L 3047 4666 
L 3047 1625 
L 3713 1625 
L 3713 1100 
L 3047 1100 
L 3047 0 
L 2419 0 
L 2419 1100 
L 313 1100 
L 313 1709 
L 2253 4666 
z
" transform="scale(0.015625)"/>
       </defs>
       <use xlink:href="#DejaVuSans-34"/>
      </g>
     </g>
    </g>
    <g id="xtick_4">
     <g id="line2d_4">
      <g>
       <use xlink:href="#ma2807be3b6" x="315.54381" y="246.04" style="stroke: #000000; stroke-width: 0.8"/>
      </g>
     </g>
     <g id="text_4">
      <!-- 6 -->
      <g transform="translate(312.36256 260.638438) scale(0.1 -0.1)">
       <defs>
        <path id="DejaVuSans-36" d="M 2113 2584 
Q 1688 2584 1439 2293 
Q 1191 2003 1191 1497 
Q 1191 994 1439 701 
Q 1688 409 2113 409 
Q 2538 409 2786 701 
Q 3034 994 3034 1497 
Q 3034 2003 2786 2293 
Q 2538 2584 2113 2584 
z
M 3366 4563 
L 3366 3988 
Q 3128 4100 2886 4159 
Q 2644 4219 2406 4219 
Q 1781 4219 1451 3797 
Q 1122 3375 1075 2522 
Q 1259 2794 1537 2939 
Q 1816 3084 2150 3084 
Q 2853 3084 3261 2657 
Q 3669 2231 3669 1497 
Q 3669 778 3244 343 
Q 2819 -91 2113 -91 
Q 1303 -91 875 529 
Q 447 1150 447 2328 
Q 447 3434 972 4092 
Q 1497 4750 2381 4750 
Q 2619 4750 2861 4703 
Q 3103 4656 3366 4563 
z
" transform="scale(0.015625)"/>
       </defs>
       <use xlink:href="#DejaVuSans-36"/>
      </g>
     </g>
    </g>
    <g id="xtick_5">
     <g id="line2d_5">
      <g>
       <use xlink:href="#ma2807be3b6" x="395.434171" y="246.04" style="stroke: #000000; stroke-width: 0.8"/>
      </g>
     </g>
     <g id="text_5">
      <!-- 8 -->
      <g transform="translate(392.252921 260.638438) scale(0.1 -0.1)">
       <defs>
        <path id="DejaVuSans-38" d="M 2034 2216 
Q 1584 2216 1326 1975 
Q 1069 1734 1069 1313 
Q 1069 891 1326 650 
Q 1584 409 2034 409 
Q 2484 409 2743 651 
Q 3003 894 3003 1313 
Q 3003 1734 2745 1975 
Q 2488 2216 2034 2216 
z
M 1403 2484 
Q 997 2584 770 2862 
Q 544 3141 544 3541 
Q 544 4100 942 4425 
Q 1341 4750 2034 4750 
Q 2731 4750 3128 4425 
Q 3525 4100 3525 3541 
Q 3525 3141 3298 2862 
Q 3072 2584 2669 2484 
Q 3125 2378 3379 2068 
Q 3634 1759 3634 1313 
Q 3634 634 3220 271 
Q 2806 -91 2034 -91 
Q 1263 -91 848 271 
Q 434 634 434 1313 
Q 434 1759 690 2068 
Q 947 2378 1403 2484 
z
M 1172 3481 
Q 1172 3119 1398 2916 
Q 1625 2713 2034 2713 
Q 2441 2713 2670 2916 
Q 2900 3119 2900 3481 
Q 2900 3844 2670 4047 
Q 2441 4250 2034 4250 
Q 1625 4250 1398 4047 
Q 1172 3844 1172 3481 
z
" transform="scale(0.015625)"/>
       </defs>
       <use xlink:href="#DejaVuSans-38"/>
      </g>
     </g>
    </g>
    <g id="xtick_6">
     <g id="line2d_6">
      <g>
       <use xlink:href="#ma2807be3b6" x="475.324532" y="246.04" style="stroke: #000000; stroke-width: 0.8"/>
      </g>
     </g>
     <g id="text_6">
      <!-- 10 -->
      <g transform="translate(468.962032 260.638438) scale(0.1 -0.1)">
       <defs>
        <path id="DejaVuSans-31" d="M 794 531 
L 1825 531 
L 1825 4091 
L 703 3866 
L 703 4441 
L 1819 4666 
L 2450 4666 
L 2450 531 
L 3481 531 
L 3481 0 
L 794 0 
L 794 531 
z
" transform="scale(0.015625)"/>
       </defs>
       <use xlink:href="#DejaVuSans-31"/>
       <use xlink:href="#DejaVuSans-30" transform="translate(63.623047 0)"/>
      </g>
     </g>
    </g>
    <g id="text_7">
     <!-- Time -->
     <g transform="translate(262.366406 274.316562) scale(0.1 -0.1)">
      <defs>
       <path id="DejaVuSans-54" d="M -19 4666 
L 3928 4666 
L 3928 4134 
L 2272 4134 
L 2272 0 
L 1638 0 
L 1638 4134 
L -19 4134 
L -19 4666 
z
" transform="scale(0.015625)"/>
       <path id="DejaVuSans-69" d="M 603 3500 
L 1178 3500 
L 1178 0 
L 603 0 
L 603 3500 
z
M 603 4863 
L 1178 4863 
L 1178 4134 
L 603 4134 
L 603 4863 
z
" transform="scale(0.015625)"/>
       <path id="DejaVuSans-6d" d="M 3328 2828 
Q 3544 3216 3844 3400 
Q 4144 3584 4550 3584 
Q 5097 3584 5394 3201 
Q 5691 2819 5691 2113 
L 5691 0 
L 5113 0 
L 5113 2094 
Q 5113 2597 4934 2840 
Q 4756 3084 4391 3084 
Q 3944 3084 3684 2787 
Q 3425 2491 3425 1978 
L 3425 0 
L 2847 0 
L 2847 2094 
Q 2847 2600 2669 2842 
Q 2491 3084 2119 3084 
Q 1678 3084 1418 2786 
Q 1159 2488 1159 1978 
L 1159 0 
L 581 0 
L 581 3500 
L 1159 3500 
L 1159 2956 
Q 1356 3278 1631 3431 
Q 1906 3584 2284 3584 
Q 2666 3584 2933 3390 
Q 3200 3197 3328 2828 
z
" transform="scale(0.015625)"/>
       <path id="DejaVuSans-65" d="M 3597 1894 
L 3597 1613 
L 953 1613 
Q 991 1019 1311 708 
Q 1631 397 2203 397 
Q 2534 397 2845 478 
Q 3156 559 3463 722 
L 3463 178 
Q 3153 47 2828 -22 
Q 2503 -91 2169 -91 
Q 1331 -91 842 396 
Q 353 884 353 1716 
Q 353 2575 817 3079 
Q 1281 3584 2069 3584 
Q 2775 3584 3186 3129 
Q 3597 2675 3597 1894 
z
M 3022 2063 
Q 3016 2534 2758 2815 
Q 2500 3097 2075 3097 
Q 1594 3097 1305 2825 
Q 1016 2553 972 2059 
L 3022 2063 
z
" transform="scale(0.015625)"/>
      </defs>
      <use xlink:href="#DejaVuSans-54"/>
      <use xlink:href="#DejaVuSans-69" transform="translate(57.958984 0)"/>
      <use xlink:href="#DejaVuSans-6d" transform="translate(85.742188 0)"/>
      <use xlink:href="#DejaVuSans-65" transform="translate(183.154297 0)"/>
     </g>
    </g>
   </g>
   <g id="matplotlib.axis_2">
    <g id="ytick_1">
     <g id="line2d_7">
      <defs>
       <path id="m9e63760da5" d="M 0 0 
L -3.5 0 
" style="stroke: #000000; stroke-width: 0.8"/>
      </defs>
      <g>
       <use xlink:href="#m9e63760da5" x="56" y="223.179253" style="stroke: #000000; stroke-width: 0.8"/>
      </g>
     </g>
     <g id="text_8">
      <!-- −0.5 -->
      <g transform="translate(24.717188 226.978472) scale(0.1 -0.1)">
       <defs>
        <path id="DejaVuSans-2212" d="M 678 2272 
L 4684 2272 
L 4684 1741 
L 678 1741 
L 678 2272 
z
" transform="scale(0.015625)"/>
        <path id="DejaVuSans-2e" d="M 684 794 
L 1344 794 
L 1344 0 
L 684 0 
L 684 794 
z
" transform="scale(0.015625)"/>
        <path id="DejaVuSans-35" d="M 691 4666 
L 3169 4666 
L 3169 4134 
L 1269 4134 
L 1269 2991 
Q 1406 3038 1543 3061 
Q 1681 3084 1819 3084 
Q 2600 3084 3056 2656 
Q 3513 2228 3513 1497 
Q 3513 744 3044 326 
Q 2575 -91 1722 -91 
Q 1428 -91 1123 -41 
Q 819 9 494 109 
L 494 744 
Q 775 591 1075 516 
Q 1375 441 1709 441 
Q 2250 441 2565 725 
Q 2881 1009 2881 1497 
Q 2881 1984 2565 2268 
Q 2250 2553 1709 2553 
Q 1456 2553 1204 2497 
Q 953 2441 691 2322 
L 691 4666 
z
" transform="scale(0.015625)"/>
       </defs>
       <use xlink:href="#DejaVuSans-2212"/>
       <use xlink:href="#DejaVuSans-30" transform="translate(83.789062 0)"/>
       <use xlink:href="#DejaVuSans-2e" transform="translate(147.412109 0)"/>
       <use xlink:href="#DejaVuSans-35" transform="translate(179.199219 0)"/>
      </g>
     </g>
    </g>
    <g id="ytick_2">
     <g id="line2d_8">
      <g>
       <use xlink:href="#m9e63760da5" x="56" y="185.384465" style="stroke: #000000; stroke-width: 0.8"/>
      </g>
     </g>
     <g id="text_9">
      <!-- 0.0 -->
      <g transform="translate(33.096875 189.183684) scale(0.1 -0.1)">
       <use xlink:href="#DejaVuSans-30"/>
       <use xlink:href="#DejaVuSans-2e" transform="translate(63.623047 0)"/>
       <use xlink:href="#DejaVuSans-30" transform="translate(95.410156 0)"/>
      </g>
     </g>
    </g>
    <g id="ytick_3">
     <g id="line2d_9">
      <g>
       <use xlink:href="#m9e63760da5" x="56" y="147.589677" style="stroke: #000000; stroke-width: 0.8"/>
      </g>
     </g>
     <g id="text_10">
      <!-- 0.5 -->
      <g transform="translate(33.096875 151.388896) scale(0.1 -0.1)">
       <use xlink:href="#DejaVuSans-30"/>
       <use xlink:href="#DejaVuSans-2e" transform="translate(63.623047 0)"/>
       <use xlink:href="#DejaVuSans-35" transform="translate(95.410156 0)"/>
      </g>
     </g>
    </g>
    <g id="ytick_4">
     <g id="line2d_10">
      <g>
       <use xlink:href="#m9e63760da5" x="56" y="109.79489" style="stroke: #000000; stroke-width: 0.8"/>
      </g>
     </g>
     <g id="text_11">
      <!-- 1.0 -->
      <g transform="translate(33.096875 113.594108) scale(0.1 -0.1)">
       <use xlink:href="#DejaVuSans-31"/>
       <use xlink:href="#DejaVuSans-2e" transform="translate(63.623047 0)"/>
       <use xlink:href="#DejaVuSans-30" transform="translate(95.410156 0)"/>
      </g>
     </g>
    </g>
    <g id="ytick_5">
     <g id="line2d_11">
      <g>
       <use xlink:href="#m9e63760da5" x="56" y="72.000102" style="stroke: #000000; stroke-width: 0.8"/>
      </g>
     </g>
     <g id="text_12">
      <!-- 1.5 -->
      <g transform="translate(33.096875 75.799321) scale(0.1 -0.1)">
       <use xlink:href="#DejaVuSans-31"/>
       <use xlink:href="#DejaVuSans-2e" transform="translate(63.623047 0)"/>
       <use xlink:href="#DejaVuSans-35" transform="translate(95.410156 0)"/>
      </g>
     </g>
    </g>
    <g id="ytick_6">
     <g id="line2d_12">
      <g>
       <use xlink:href="#m9e63760da5" x="56" y="34.205314" style="stroke: #000000; stroke-width: 0.8"/>
      </g>
     </g>
     <g id="text_13">
      <!-- 2.0 -->
      <g transform="translate(33.096875 38.004533) scale(0.1 -0.1)">
       <use xlink:href="#DejaVuSans-32"/>
       <use xlink:href="#DejaVuSans-2e" transform="translate(63.623047 0)"/>
       <use xlink:href="#DejaVuSans-30" transform="translate(95.410156 0)"/>
      </g>
     </g>
    </g>
    <g id="text_14">
     <!-- Position -->
     <g transform="translate(18.6375 155.924062) rotate(-90) scale(0.1 -0.1)">
      <defs>
       <path id="DejaVuSans-50" d="M 1259 4147 
L 1259 2394 
L 2053 2394 
Q 2494 2394 2734 2622 
Q 2975 2850 2975 3272 
Q 2975 3691 2734 3919 
Q 2494 4147 2053 4147 
L 1259 4147 
z
M 628 4666 
L 2053 4666 
Q 2838 4666 3239 4311 
Q 3641 3956 3641 3272 
Q 3641 2581 3239 2228 
Q 2838 1875 2053 1875 
L 1259 1875 
L 1259 0 
L 628 0 
L 628 4666 
z
" transform="scale(0.015625)"/>
       <path id="DejaVuSans-6f" d="M 1959 3097 
Q 1497 3097 1228 2736 
Q 959 2375 959 1747 
Q 959 1119 1226 758 
Q 1494 397 1959 397 
Q 2419 397 2687 759 
Q 2956 1122 2956 1747 
Q 2956 2369 2687 2733 
Q 2419 3097 1959 3097 
z
M 1959 3584 
Q 2709 3584 3137 3096 
Q 3566 2609 3566 1747 
Q 3566 888 3137 398 
Q 2709 -91 1959 -91 
Q 1206 -91 779 398 
Q 353 888 353 1747 
Q 353 2609 779 3096 
Q 1206 3584 1959 3584 
z
" transform="scale(0.015625)"/>
       <path id="DejaVuSans-73" d="M 2834 3397 
L 2834 2853 
Q 2591 2978 2328 3040 
Q 2066 3103 1784 3103 
Q 1356 3103 1142 2972 
Q 928 2841 928 2578 
Q 928 2378 1081 2264 
Q 1234 2150 1697 2047 
L 1894 2003 
Q 2506 1872 2764 1633 
Q 3022 1394 3022 966 
Q 3022 478 2636 193 
Q 2250 -91 1575 -91 
Q 1294 -91 989 -36 
Q 684 19 347 128 
L 347 722 
Q 666 556 975 473 
Q 1284 391 1588 391 
Q 1994 391 2212 530 
Q 2431 669 2431 922 
Q 2431 1156 2273 1281 
Q 2116 1406 1581 1522 
L 1381 1569 
Q 847 1681 609 1914 
Q 372 2147 372 2553 
Q 372 3047 722 3315 
Q 1072 3584 1716 3584 
Q 2034 3584 2315 3537 
Q 2597 3491 2834 3397 
z
" transform="scale(0.015625)"/>
       <path id="DejaVuSans-74" d="M 1172 4494 
L 1172 3500 
L 2356 3500 
L 2356 3053 
L 1172 3053 
L 1172 1153 
Q 1172 725 1289 603 
Q 1406 481 1766 481 
L 2356 481 
L 2356 0 
L 1766 0 
Q 1100 0 847 248 
Q 594 497 594 1153 
L 594 3053 
L 172 3053 
L 172 3500 
L 594 3500 
L 594 4494 
L 1172 4494 
z
" transform="scale(0.015625)"/>
       <path id="DejaVuSans-6e" d="M 3513 2113 
L 3513 0 
L 2938 0 
L 2938 2094 
Q 2938 2591 2744 2837 
Q 2550 3084 2163 3084 
Q 1697 3084 1428 2787 
Q 1159 2491 1159 1978 
L 1159 0 
L 581 0 
L 581 3500 
L 1159 3500 
L 1159 2956 
Q 1366 3272 1645 3428 
Q 1925 3584 2291 3584 
Q 2894 3584 3203 3211 
Q 3513 2838 3513 2113 
z
" transform="scale(0.015625)"/>
      </defs>
      <use xlink:href="#DejaVuSans-50"/>
      <use xlink:href="#DejaVuSans-6f" transform="translate(56.677734 0)"/>
      <use xlink:href="#DejaVuSans-73" transform="translate(117.859375 0)"/>
      <use xlink:href="#DejaVuSans-69" transform="translate(169.958984 0)"/>
      <use xlink:href="#DejaVuSans-74" transform="translate(197.742188 0)"/>
      <use xlink:href="#DejaVuSans-69" transform="translate(236.951172 0)"/>
      <use xlink:href="#DejaVuSans-6f" transform="translate(264.734375 0)"/>
      <use xlink:href="#DejaVuSans-6e" transform="translate(325.916016 0)"/>
     </g>
    </g>
   </g>
   <g id="line2d_13">
    <path d="M 75.872727 185.384465 
L 85.859022 164.793565 
L 91.850799 152.924915 
L 95.845317 145.365413 
L 99.839836 138.168006 
L 103.834354 131.397053 
L 107.828872 125.112657 
L 111.82339 119.370055 
L 115.817908 114.219073 
L 119.812426 109.703626 
L 121.809685 107.696225 
L 123.806944 105.861277 
L 125.804203 104.202424 
L 127.801462 102.722866 
L 129.798721 101.425358 
L 131.79598 100.312198 
L 133.793239 99.385223 
L 135.790498 98.645806 
L 137.787757 98.09485 
L 139.785016 97.732789 
L 141.782275 97.559581 
L 143.779534 97.574715 
L 145.776793 97.777209 
L 147.774052 98.165612 
L 149.771311 98.738009 
L 151.76857 99.492024 
L 153.765829 100.424827 
L 155.763088 101.533143 
L 157.760347 102.813257 
L 159.757606 104.261025 
L 161.754865 105.871882 
L 163.752124 107.640858 
L 167.746642 111.631322 
L 171.74116 116.184992 
L 175.735678 121.248816 
L 179.730196 126.764646 
L 183.724714 132.669816 
L 187.719233 138.897772 
L 193.71101 148.691573 
L 205.694564 168.996277 
L 213.6836 182.250636 
L 219.675377 191.62215 
L 223.669895 197.466411 
L 227.664413 202.910505 
L 231.658931 207.892483 
L 235.653449 212.355014 
L 239.647967 216.245959 
L 241.645226 217.96234 
L 243.642485 219.518886 
L 245.639744 220.910761 
L 247.637003 222.133542 
L 249.634262 223.183227 
L 251.631521 224.056249 
L 253.62878 224.74948 
L 255.626039 225.260243 
L 257.623298 225.586317 
L 259.620557 225.725942 
L 261.617816 225.677824 
L 263.615075 225.441139 
L 265.612334 225.015534 
L 267.609593 224.401129 
L 269.606852 223.598513 
L 271.604111 222.608749 
L 273.60137 221.433366 
L 275.59863 220.074356 
L 277.595889 218.534173 
L 279.593148 216.81572 
L 281.590407 214.92235 
L 283.587666 212.857848 
L 287.582184 208.232733 
L 291.576702 202.979034 
L 295.57122 197.141692 
L 299.565738 190.77148 
L 303.560256 183.924493 
L 307.554774 176.661593 
L 313.546551 165.130602 
L 319.538328 153.04441 
L 341.508177 108.007661 
L 347.499954 96.633735 
L 351.494472 89.503642 
L 355.48899 82.810424 
L 359.483508 76.613406 
L 363.478026 70.966954 
L 367.472545 65.919932 
L 371.467063 61.515216 
L 373.464322 59.565377 
L 375.461581 57.789263 
L 377.45884 56.190371 
L 379.456099 54.77175 
L 381.453358 53.536004 
L 383.450617 52.485275 
L 385.447876 51.621244 
L 387.445135 50.945129 
L 389.442394 50.457672 
L 391.439653 50.159148 
L 393.436912 50.049359 
L 395.434171 50.127635 
L 397.43143 50.392834 
L 399.428689 50.84335 
L 401.425948 51.477111 
L 403.423207 52.29159 
L 405.420466 53.283805 
L 407.417725 54.450331 
L 409.414984 55.78731 
L 411.412243 57.290453 
L 413.409502 58.955059 
L 415.406761 60.776024 
L 419.401279 64.864665 
L 423.395797 69.507972 
L 427.390315 74.651996 
L 431.384833 80.237789 
L 435.379351 86.201986 
L 441.371128 95.710039 
L 447.362905 105.678703 
L 463.340978 132.604847 
L 469.332755 142.111176 
L 473.327273 148.073838 
L 473.327273 148.073838 
" clip-path="url(#p56d60962c9)" style="fill: none; stroke: #808080; stroke-linecap: square"/>
   </g>
   <g id="line2d_14">
    <path d="M 75.872727 181.629824 
L 77.869986 182.273747 
L 79.867245 172.186354 
L 81.864504 161.442138 
L 83.861763 170.625299 
L 85.859022 166.563397 
L 87.856281 148.841328 
L 89.85354 151.018324 
L 91.850799 156.473652 
L 93.848058 145.002886 
L 95.845317 148.868368 
L 97.842577 145.237764 
L 99.839836 136.339023 
L 101.837095 149.187763 
L 103.834354 144.435634 
L 105.831613 132.44077 
L 107.828872 132.768604 
L 109.826131 119.795002 
L 111.82339 126.23377 
L 113.820649 127.393266 
L 115.817908 103.140296 
L 117.815167 113.58604 
L 119.812426 109.193183 
L 121.809685 118.465836 
L 123.806944 109.976243 
L 125.804203 103.363964 
L 127.801462 111.423178 
L 129.798721 98.585473 
L 131.79598 104.8524 
L 133.793239 101.590124 
L 135.790498 103.194081 
L 137.787757 84.093558 
L 139.785016 97.834814 
L 141.782275 105.554773 
L 143.779534 91.357133 
L 145.776793 107.005515 
L 147.774052 96.586821 
L 149.771311 113.551072 
L 151.76857 109.531726 
L 153.765829 98.936762 
L 155.763088 95.951106 
L 157.760347 101.517892 
L 159.757606 105.135205 
L 161.754865 108.147912 
L 163.752124 118.816943 
L 165.749383 115.00386 
L 167.746642 115.113271 
L 169.743901 105.850204 
L 171.74116 113.587596 
L 173.738419 131.983402 
L 175.735678 118.799079 
L 177.732937 126.864868 
L 179.730196 131.88147 
L 181.727455 125.049004 
L 183.724714 124.876534 
L 185.721974 128.708233 
L 187.719233 145.241381 
L 189.716492 144.448418 
L 193.71101 141.317469 
L 195.708269 155.662449 
L 197.705528 156.819259 
L 199.702787 167.171371 
L 201.700046 171.251324 
L 203.697305 159.466429 
L 205.694564 158.744517 
L 207.691823 172.908157 
L 209.689082 168.115927 
L 211.686341 176.266661 
L 213.6836 187.127068 
L 215.680859 182.711895 
L 217.678118 176.944474 
L 219.675377 191.892958 
L 221.672636 182.763191 
L 223.669895 217.268953 
L 225.667154 194.029726 
L 227.664413 202.25252 
L 229.661672 207.72314 
L 231.658931 207.198867 
L 233.65619 225.216015 
L 235.653449 214.015505 
L 237.650708 211.675577 
L 239.647967 205.07462 
L 241.645226 221.879923 
L 243.642485 225.630255 
L 245.639744 224.703521 
L 247.637003 215.214056 
L 249.634262 220.698211 
L 251.631521 228.060684 
L 253.62878 220.869713 
L 255.626039 224.526438 
L 257.623298 218.26437 
L 259.620557 231.032731 
L 261.617816 228.154608 
L 263.615075 228.405068 
L 265.612334 236.078182 
L 267.609593 222.162768 
L 269.606852 221.625207 
L 271.604111 222.570097 
L 273.60137 223.2066 
L 275.59863 230.773084 
L 277.595889 221.713813 
L 279.593148 219.406285 
L 281.590407 220.986729 
L 283.587666 214.077 
L 285.584925 207.572228 
L 287.582184 193.975134 
L 289.579443 204.362163 
L 291.576702 201.032221 
L 293.573961 200.69301 
L 295.57122 211.645602 
L 297.568479 194.220225 
L 299.565738 190.316202 
L 301.562997 168.784342 
L 303.560256 185.378542 
L 305.557515 178.061675 
L 307.554774 176.923978 
L 309.552033 181.728335 
L 311.549292 160.409245 
L 313.546551 159.446772 
L 315.54381 155.172242 
L 317.541069 163.993865 
L 319.538328 142.440748 
L 321.535587 159.531093 
L 323.532846 140.363593 
L 325.530105 124.091422 
L 327.527364 143.979499 
L 329.524623 136.618968 
L 331.521882 127.443971 
L 333.519141 127.883888 
L 335.5164 131.711811 
L 337.513659 115.425067 
L 339.510918 119.975974 
L 341.508177 104.427796 
L 343.505436 111.086905 
L 345.502695 88.626973 
L 347.499954 102.554314 
L 349.497213 95.452414 
L 351.494472 83.3543 
L 353.491731 95.402657 
L 355.48899 81.091064 
L 357.486249 69.765733 
L 359.483508 88.764304 
L 361.480767 72.322531 
L 363.478026 69.002511 
L 365.475286 62.455923 
L 367.472545 75.26999 
L 369.469804 73.616127 
L 371.467063 57.569882 
L 373.464322 57.320482 
L 375.461581 55.895798 
L 377.45884 53.571583 
L 379.456099 59.912029 
L 381.453358 51.780408 
L 383.450617 50.269952 
L 385.447876 57.020997 
L 387.445135 36.841818 
L 389.442394 46.875989 
L 391.439653 59.164161 
L 393.436912 45.086499 
L 395.434171 57.495212 
L 397.43143 44.443295 
L 399.428689 42.085575 
L 401.425948 57.680614 
L 403.423207 45.00947 
L 405.420466 50.163611 
L 407.417725 48.236414 
L 409.414984 41.449532 
L 411.412243 59.145331 
L 413.409502 64.652519 
L 415.406761 67.499826 
L 417.40402 68.914526 
L 419.401279 65.447474 
L 421.398538 64.54148 
L 423.395797 67.416478 
L 425.393056 65.768325 
L 427.390315 74.553716 
L 429.387574 66.406333 
L 431.384833 82.238319 
L 433.382092 62.615059 
L 435.379351 81.472593 
L 437.37661 95.78435 
L 439.373869 100.572273 
L 441.371128 92.063051 
L 443.368387 100.683047 
L 445.365646 96.922776 
L 447.362905 102.10152 
L 449.360164 109.611555 
L 451.357423 118.858378 
L 453.354683 127.309303 
L 455.351942 122.630197 
L 457.349201 116.163701 
L 459.34646 124.377434 
L 461.343719 138.737887 
L 463.340978 131.29578 
L 465.338237 132.924351 
L 467.335496 145.689724 
L 469.332755 140.949174 
L 471.330014 144.695732 
L 473.327273 156.713502 
L 473.327273 156.713502 
" clip-path="url(#p56d60962c9)" style="fill: none; stroke: #000000; stroke-linecap: square"/>
   </g>
   <g id="line2d_15">
    <path d="M 75.872727 181.629824 
L 77.869986 181.988155 
L 79.867245 177.094297 
L 81.864504 168.446782 
L 83.861763 167.519962 
L 85.859022 165.444361 
L 87.856281 156.730098 
L 89.85354 151.997962 
L 91.850799 150.989984 
L 93.848058 146.530311 
L 95.845317 144.712209 
L 97.842577 142.42263 
L 99.839836 138.293178 
L 101.837095 138.733168 
L 103.834354 137.976532 
L 105.831613 134.524023 
L 107.828872 131.944852 
L 109.826131 126.986815 
L 111.82339 124.479685 
L 113.820649 122.788337 
L 115.817908 116.383352 
L 117.815167 113.302576 
L 119.812426 109.9589 
L 121.809685 109.125822 
L 123.806944 106.902544 
L 125.804203 103.864312 
L 127.801462 102.957834 
L 129.798721 99.88281 
L 131.79598 98.56286 
L 133.793239 96.960847 
L 135.790498 96.023315 
L 137.787757 91.787093 
L 139.785016 90.796633 
L 141.782275 91.523649 
L 143.779534 89.675707 
L 145.776793 91.094359 
L 147.774052 90.545066 
L 149.771311 93.320843 
L 151.76857 95.126599 
L 153.765829 94.845123 
L 155.763088 94.122238 
L 157.760347 94.586958 
L 159.757606 95.732512 
L 161.754865 97.356815 
L 163.752124 100.804837 
L 165.749383 103.169381 
L 167.746642 105.286521 
L 169.743901 105.443129 
L 171.74116 107.004971 
L 173.738419 111.768364 
L 175.735678 113.507259 
L 177.732937 116.489667 
L 179.730196 119.995743 
L 181.727455 121.763042 
L 183.724714 123.219182 
L 185.721974 125.137514 
L 187.719233 129.804716 
L 189.716492 133.68439 
L 191.713751 136.711074 
L 193.71101 138.97958 
L 195.708269 143.510743 
L 197.705528 147.592512 
L 201.700046 158.299013 
L 203.697305 160.659127 
L 205.694564 162.43329 
L 207.691823 166.441802 
L 209.689082 168.918081 
L 211.686341 172.430371 
L 213.6836 177.35384 
L 215.680859 180.693006 
L 217.678118 182.379994 
L 219.675377 186.43734 
L 221.672636 188.138347 
L 223.669895 195.818092 
L 225.667154 198.096724 
L 227.664413 201.41453 
L 229.661672 205.141692 
L 231.658931 208.120933 
L 233.65619 213.862876 
L 235.653449 216.639485 
L 237.650708 218.434163 
L 239.647967 218.582583 
L 243.642485 224.779858 
L 245.639744 227.203334 
L 247.637003 227.392094 
L 249.634262 228.384464 
L 251.631521 230.442956 
L 253.62878 230.760066 
L 255.626039 231.552428 
L 257.623298 230.942289 
L 259.620557 232.620693 
L 261.617816 233.435329 
L 263.615075 234.070427 
L 265.612334 235.923793 
L 271.604111 232.798711 
L 273.60137 232.012804 
L 275.59863 232.642943 
L 277.595889 231.457805 
L 279.593148 229.926362 
L 281.590407 228.819143 
L 283.587666 226.529004 
L 285.584925 223.283094 
L 287.582184 217.902132 
L 289.579443 215.090181 
L 291.576702 212.029442 
L 293.573961 209.314058 
L 295.57122 208.998574 
L 297.568479 205.562547 
L 299.565738 201.878191 
L 301.562997 194.734263 
L 303.560256 191.601681 
L 305.557515 187.607864 
L 307.554774 184.004965 
L 309.552033 181.852871 
L 311.549292 176.16094 
L 315.54381 166.048693 
L 317.541069 163.38895 
L 319.538328 157.250292 
L 321.535587 155.188059 
L 323.532846 150.030352 
L 325.530105 142.682994 
L 327.527364 140.097614 
L 329.524623 136.686206 
L 331.521882 132.209931 
L 333.519141 128.573095 
L 335.5164 126.304348 
L 337.513659 121.525207 
L 339.510918 118.381216 
L 341.508177 112.97029 
L 343.505436 109.665419 
L 345.502695 102.844988 
L 347.499954 99.651413 
L 349.497213 95.777842 
L 351.494472 90.381447 
L 353.491731 88.104868 
L 355.48899 83.710927 
L 357.486249 78.000107 
L 359.483508 76.732855 
L 363.478026 69.038835 
L 365.475286 64.733386 
L 369.469804 62.457068 
L 371.467063 58.758699 
L 373.464322 55.680007 
L 377.45884 50.301029 
L 379.456099 49.374386 
L 381.453358 47.268222 
L 383.450617 45.336443 
L 385.447876 45.077876 
L 387.445135 41.31266 
L 389.442394 40.030856 
L 391.439653 41.351683 
L 393.436912 40.084405 
L 395.434171 41.413013 
L 397.43143 40.316719 
L 399.428689 39.046495 
L 401.425948 40.932841 
L 403.423207 40.371122 
L 405.420466 40.930725 
L 407.417725 41.163111 
L 409.414984 40.200792 
L 411.412243 42.700427 
L 415.406761 49.464437 
L 417.40402 52.816148 
L 419.401279 55.139022 
L 421.398538 57.013057 
L 423.395797 59.179349 
L 425.393056 60.759135 
L 427.390315 63.740532 
L 429.387574 64.822042 
L 431.384833 68.648979 
L 433.382092 68.341241 
L 435.379351 71.489487 
L 439.373869 82.358864 
L 441.371128 85.547534 
L 443.368387 89.831805 
L 445.365646 92.786056 
L 447.362905 96.20999 
L 449.360164 100.472301 
L 451.357423 105.785196 
L 453.354683 111.863999 
L 455.351942 116.177509 
L 457.349201 118.593254 
L 459.34646 122.044569 
L 461.343719 127.542922 
L 463.340978 130.812419 
L 465.338237 133.785916 
L 467.335496 138.554606 
L 471.330014 144.891334 
L 473.327273 149.733745 
L 473.327273 149.733745 
" clip-path="url(#p56d60962c9)" style="fill: none; stroke: #ff0000; stroke-width: 2; stroke-linecap: square"/>
   </g>
   <g id="patch_3">
    <path d="M 56 246.04 
L 56 26.88 
" style="fill: none; stroke: #000000; stroke-width: 0.8; stroke-linejoin: miter; stroke-linecap: square"/>
   </g>
   <g id="patch_4">
    <path d="M 493.2 246.04 
L 493.2 26.88 
" style="fill: none; stroke: #000000; stroke-width: 0.8; stroke-linejoin: miter; stroke-linecap: square"/>
   </g>
   <g id="patch_5">
    <path d="M 56 246.04 
L 493.2 246.04 
" style="fill: none; stroke: #000000; stroke-width: 0.8; stroke-linejoin: miter; stroke-linecap: square"/>
   </g>
   <g id="patch_6">
    <path d="M 56 26.88 
L 493.2 26.88 
" style="fill: none; stroke: #000000; stroke-width: 0.8; stroke-linejoin: miter; stroke-linecap: square"/>
   </g>
   <g id="text_15">
    <!-- Noisy Sensor Signal vs Kalman Filter Estimate -->
    <g transform="translate(137.12125 20.88) scale(0.12 -0.12)">
     <defs>
      <path id="DejaVuSans-4e" d="M 628 4666 
L 1478 4666 
L 3547 763 
L 3547 4666 
L 4159 4666 
L 4159 0 
L 3309 0 
L 1241 3903 
L 1241 0 
L 628 0 
L 628 4666 
z
" transform="scale(0.015625)"/>
      <path id="DejaVuSans-79" d="M 2059 -325 
Q 1816 -950 1584 -1140 
Q 1353 -1331 966 -1331 
L 506 -1331 
L 506 -850 
L 844 -850 
Q 1081 -850 1212 -737 
Q 1344 -625 1503 -206 
L 1606 56 
L 191 3500 
L 800 3500 
L 1894 763 
L 2988 3500 
L 3597 3500 
L 2059 -325 
z
" transform="scale(0.015625)"/>
      <path id="DejaVuSans-20" transform="scale(0.015625)"/>
      <path id="DejaVuSans-53" d="M 3425 4513 
L 3425 3897 
Q 3066 4069 2747 4153 
Q 2428 4238 2131 4238 
Q 1616 4238 1336 4038 
Q 1056 3838 1056 3469 
Q 1056 3159 1242 3001 
Q 1428 2844 1947 2747 
L 2328 2669 
Q 3034 2534 3370 2195 
Q 3706 1856 3706 1288 
Q 3706 609 3251 259 
Q 2797 -91 1919 -91 
Q 1588 -91 1214 -16 
Q 841 59 441 206 
L 441 856 
Q 825 641 1194 531 
Q 1563 422 1919 422 
Q 2459 422 2753 634 
Q 3047 847 3047 1241 
Q 3047 1584 2836 1778 
Q 2625 1972 2144 2069 
L 1759 2144 
Q 1053 2284 737 2584 
Q 422 2884 422 3419 
Q 422 4038 858 4394 
Q 1294 4750 2059 4750 
Q 2388 4750 2728 4690 
Q 3069 4631 3425 4513 
z
" transform="scale(0.015625)"/>
      <path id="DejaVuSans-72" d="M 2631 2963 
Q 2534 3019 2420 3045 
Q 2306 3072 2169 3072 
Q 1681 3072 1420 2755 
Q 1159 2438 1159 1844 
L 1159 0 
L 581 0 
L 581 3500 
L 1159 3500 
L 1159 2956 
Q 1341 3275 1631 3429 
Q 1922 3584 2338 3584 
Q 2397 3584 2469 3576 
Q 2541 3569 2628 3553 
L 2631 2963 
z
" transform="scale(0.015625)"/>
      <path id="DejaVuSans-67" d="M 2906 1791 
Q 2906 2416 2648 2759 
Q 2391 3103 1925 3103 
Q 1463 3103 1205 2759 
Q 947 2416 947 1791 
Q 947 1169 1205 825 
Q 1463 481 1925 481 
Q 2391 481 2648 825 
Q 2906 1169 2906 1791 
z
M 3481 434 
Q 3481 -459 3084 -895 
Q 2688 -1331 1869 -1331 
Q 1566 -1331 1297 -1286 
Q 1028 -1241 775 -1147 
L 775 -588 
Q 1028 -725 1275 -790 
Q 1522 -856 1778 -856 
Q 2344 -856 2625 -561 
Q 2906 -266 2906 331 
L 2906 616 
Q 2728 306 2450 153 
Q 2172 0 1784 0 
Q 1141 0 747 490 
Q 353 981 353 1791 
Q 353 2603 747 3093 
Q 1141 3584 1784 3584 
Q 2172 3584 2450 3431 
Q 2728 3278 2906 2969 
L 2906 3500 
L 3481 3500 
L 3481 434 
z
" transform="scale(0.015625)"/>
      <path id="DejaVuSans-61" d="M 2194 1759 
Q 1497 1759 1228 1600 
Q 959 1441 959 1056 
Q 959 750 1161 570 
Q 1363 391 1709 391 
Q 2188 391 2477 730 
Q 2766 1069 2766 1631 
L 2766 1759 
L 2194 1759 
z
M 3341 1997 
L 3341 0 
L 2766 0 
L 2766 531 
Q 2569 213 2275 61 
Q 1981 -91 1556 -91 
Q 1019 -91 701 211 
Q 384 513 384 1019 
Q 384 1609 779 1909 
Q 1175 2209 1959 2209 
L 2766 2209 
L 2766 2266 
Q 2766 2663 2505 2880 
Q 2244 3097 1772 3097 
Q 1472 3097 1187 3025 
Q 903 2953 641 2809 
L 641 3341 
Q 956 3463 1253 3523 
Q 1550 3584 1831 3584 
Q 2591 3584 2966 3190 
Q 3341 2797 3341 1997 
z
" transform="scale(0.015625)"/>
      <path id="DejaVuSans-6c" d="M 603 4863 
L 1178 4863 
L 1178 0 
L 603 0 
L 603 4863 
z
" transform="scale(0.015625)"/>
      <path id="DejaVuSans-76" d="M 191 3500 
L 800 3500 
L 1894 563 
L 2988 3500 
L 3597 3500 
L 2284 0 
L 1503 0 
L 191 3500 
z
" transform="scale(0.015625)"/>
      <path id="DejaVuSans-4b" d="M 628 4666 
L 1259 4666 
L 1259 2694 
L 3353 4666 
L 4166 4666 
L 1850 2491 
L 4331 0 
L 3500 0 
L 1259 2247 
L 1259 0 
L 628 0 
L 628 4666 
z
" transform="scale(0.015625)"/>
      <path id="DejaVuSans-46" d="M 628 4666 
L 3309 4666 
L 3309 4134 
L 1259 4134 
L 1259 2759 
L 3109 2759 
L 3109 2228 
L 1259 2228 
L 1259 0 
L 628 0 
L 628 4666 
z
" transform="scale(0.015625)"/>
      <path id="DejaVuSans-45" d="M 628 4666 
L 3578 4666 
L 3578 4134 
L 1259 4134 
L 1259 2753 
L 3481 2753 
L 3481 2222 
L 1259 2222 
L 1259 531 
L 3634 531 
L 3634 0 
L 628 0 
L 628 4666 
z
" transform="scale(0.015625)"/>
     </defs>
     <use xlink:href="#DejaVuSans-4e"/>
     <use xlink:href="#DejaVuSans-6f" transform="translate(74.804688 0)"/>
     <use xlink:href="#DejaVuSans-69" transform="translate(135.986328 0)"/>
     <use xlink:href="#DejaVuSans-73" transform="translate(163.769531 0)"/>
     <use xlink:href="#DejaVuSans-79" transform="translate(215.869141 0)"/>
     <use xlink:href="#DejaVuSans-20" transform="translate(275.048828 0)"/>
     <use xlink:href="#DejaVuSans-53" transform="translate(306.835938 0)"/>
     <use xlink:href="#DejaVuSans-65" transform="translate(370.3125 0)"/>
     <use xlink:href="#DejaVuSans-6e" transform="translate(431.835938 0)"/>
     <use xlink:href="#DejaVuSans-73" transform="translate(495.214844 0)"/>
     <use xlink:href="#DejaVuSans-6f" transform="translate(547.314453 0)"/>
     <use xlink:href="#DejaVuSans-72" transform="translate(608.496094 0)"/>
     <use xlink:href="#DejaVuSans-20" transform="translate(649.609375 0)"/>
     <use xlink:href="#DejaVuSans-53" transform="translate(681.396484 0)"/>
     <use xlink:href="#DejaVuSans-69" transform="translate(744.873047 0)"/>
     <use xlink:href="#DejaVuSans-67" transform="translate(772.65625 0)"/>
     <use xlink:href="#DejaVuSans-6e" transform="translate(836.132812 0)"/>
     <use xlink:href="#DejaVuSans-61" transform="translate(899.511719 0)"/>
     <use xlink:href="#DejaVuSans-6c" transform="translate(960.791016 0)"/>
     <use xlink:href="#DejaVuSans-20" transform="translate(988.574219 0)"/>
     <use xlink:href="#DejaVuSans-76" transform="translate(1020.361328 0)"/>
     <use xlink:href="#DejaVuSans-73" transform="translate(1079.541016 0)"/>
     <use xlink:href="#DejaVuSans-20" transform="translate(1131.640625 0)"/>
     <use xlink:href="#DejaVuSans-4b" transform="translate(1163.427734 0)"/>
     <use xlink:href="#DejaVuSans-61" transform="translate(1227.253906 0)"/>
     <use xlink:href="#DejaVuSans-6c" transform="translate(1288.533203 0)"/>
     <use xlink:href="#DejaVuSans-6d" transform="translate(1316.316406 0)"/>
     <use xlink:href="#DejaVuSans-61" transform="translate(1413.728516 0)"/>
     <use xlink:href="#DejaVuSans-6e" transform="translate(1475.007812 0)"/>
     <use xlink:href="#DejaVuSans-20" transform="translate(1538.386719 0)"/>
     <use xlink:href="#DejaVuSans-46" transform="translate(1570.173828 0)"/>
     <use xlink:href="#DejaVuSans-69" transform="translate(1620.443359 0)"/>
     <use xlink:href="#DejaVuSans-6c" transform="translate(1648.226562 0)"/>
     <use xlink:href="#DejaVuSans-74" transform="translate(1676.009766 0)"/>
     <use xlink:href="#DejaVuSans-65" transform="translate(1715.21875 0)"/>
     <use xlink:href="#DejaVuSans-72" transform="translate(1776.742188 0)"/>
     <use xlink:href="#DejaVuSans-20" transform="translate(1817.855469 0)"/>
     <use xlink:href="#DejaVuSans-45" transform="translate(1849.642578 0)"/>
     <use xlink:href="#DejaVuSans-73" transform="translate(1912.826172 0)"/>
     <use xlink:href="#DejaVuSans-74" transform="translate(1964.925781 0)"/>
     <use xlink:href="#DejaVuSans-69" transform="translate(2004.134766 0)"/>
     <use xlink:href="#DejaVuSans-6d" transform="translate(2031.917969 0)"/>
     <use xlink:href="#DejaVuSans-61" transform="translate(2129.330078 0)"/>
     <use xlink:href="#DejaVuSans-74" transform="translate(2190.609375 0)"/>
     <use xlink:href="#DejaVuSans-65" transform="translate(2229.818359 0)"/>
    </g>
   </g>
   <g id="legend_1">
    <g id="patch_7">
     <path d="M 63 78.914375 
L 195.44375 78.914375 
Q 197.44375 78.914375 197.44375 76.914375 
L 197.44375 33.88 
Q 197.44375 31.88 195.44375 31.88 
L 63 31.88 
Q 61 31.88 61 33.88 
L 61 76.914375 
Q 61 78.914375 63 78.914375 
z
" style="fill: #ffffff; opacity: 0.8; stroke: #cccccc; stroke-linejoin: miter"/>
    </g>
    <g id="line2d_16">
     <path d="M 65 39.978438 
L 75 39.978438 
L 85 39.978438 
" style="fill: none; stroke: #808080; stroke-linecap: square"/>
    </g>
    <g id="text_16">
     <!-- True position -->
     <g transform="translate(93 43.478438) scale(0.1 -0.1)">
      <defs>
       <path id="DejaVuSans-75" d="M 544 1381 
L 544 3500 
L 1119 3500 
L 1119 1403 
Q 1119 906 1312 657 
Q 1506 409 1894 409 
Q 2359 409 2629 706 
Q 2900 1003 2900 1516 
L 2900 3500 
L 3475 3500 
L 3475 0 
L 2900 0 
L 2900 538 
Q 2691 219 2414 64 
Q 2138 -91 1772 -91 
Q 1169 -91 856 284 
Q 544 659 544 1381 
z
M 1991 3584 
L 1991 3584 
z
" transform="scale(0.015625)"/>
       <path id="DejaVuSans-70" d="M 1159 525 
L 1159 -1331 
L 581 -1331 
L 581 3500 
L 1159 3500 
L 1159 2969 
Q 1341 3281 1617 3432 
Q 1894 3584 2278 3584 
Q 2916 3584 3314 3078 
Q 3713 2572 3713 1747 
Q 3713 922 3314 415 
Q 2916 -91 2278 -91 
Q 1894 -91 1617 61 
Q 1341 213 1159 525 
z
M 3116 1747 
Q 3116 2381 2855 2742 
Q 2594 3103 2138 3103 
Q 1681 3103 1420 2742 
Q 1159 2381 1159 1747 
Q 1159 1113 1420 752 
Q 1681 391 2138 391 
Q 2594 391 2855 752 
Q 3116 1113 3116 1747 
z
" transform="scale(0.015625)"/>
      </defs>
      <use xlink:href="#DejaVuSans-54"/>
      <use xlink:href="#DejaVuSans-72" transform="translate(46.333984 0)"/>
      <use xlink:href="#DejaVuSans-75" transform="translate(87.447266 0)"/>
      <use xlink:href="#DejaVuSans-65" transform="translate(150.826172 0)"/>
      <use xlink:href="#DejaVuSans-20" transform="translate(212.349609 0)"/>
      <use xlink:href="#DejaVuSans-70" transform="translate(244.136719 0)"/>
      <use xlink:href="#DejaVuSans-6f" transform="translate(307.613281 0)"/>
      <use xlink:href="#DejaVuSans-73" transform="translate(368.794922 0)"/>
      <use xlink:href="#DejaVuSans-69" transform="translate(420.894531 0)"/>
      <use xlink:href="#DejaVuSans-74" transform="translate(448.677734 0)"/>
      <use xlink:href="#DejaVuSans-69" transform="translate(487.886719 0)"/>
      <use xlink:href="#DejaVuSans-6f" transform="translate(515.669922 0)"/>
      <use xlink:href="#DejaVuSans-6e" transform="translate(576.851562 0)"/>
     </g>
    </g>
    <g id="line2d_17">
     <path d="M 65 54.656563 
L 75 54.656563 
L 85 54.656563 
" style="fill: none; stroke: #000000; stroke-linecap: square"/>
    </g>
    <g id="text_17">
     <!-- Noisy measurement -->
     <g transform="translate(93 58.156563) scale(0.1 -0.1)">
      <use xlink:href="#DejaVuSans-4e"/>
      <use xlink:href="#DejaVuSans-6f" transform="translate(74.804688 0)"/>
      <use xlink:href="#DejaVuSans-69" transform="translate(135.986328 0)"/>
      <use xlink:href="#DejaVuSans-73" transform="translate(163.769531 0)"/>
      <use xlink:href="#DejaVuSans-79" transform="translate(215.869141 0)"/>
      <use xlink:href="#DejaVuSans-20" transform="translate(275.048828 0)"/>
      <use xlink:href="#DejaVuSans-6d" transform="translate(306.835938 0)"/>
      <use xlink:href="#DejaVuSans-65" transform="translate(404.248047 0)"/>
      <use xlink:href="#DejaVuSans-61" transform="translate(465.771484 0)"/>
      <use xlink:href="#DejaVuSans-73" transform="translate(527.050781 0)"/>
      <use xlink:href="#DejaVuSans-75" transform="translate(579.150391 0)"/>
      <use xlink:href="#DejaVuSans-72" transform="translate(642.529297 0)"/>
      <use xlink:href="#DejaVuSans-65" transform="translate(681.392578 0)"/>
      <use xlink:href="#DejaVuSans-6d" transform="translate(742.916016 0)"/>
      <use xlink:href="#DejaVuSans-65" transform="translate(840.328125 0)"/>
      <use xlink:href="#DejaVuSans-6e" transform="translate(901.851562 0)"/>
      <use xlink:href="#DejaVuSans-74" transform="translate(965.230469 0)"/>
     </g>
    </g>
    <g id="line2d_18">
     <path d="M 65 69.334688 
L 75 69.334688 
L 85 69.334688 
" style="fill: none; stroke: #ff0000; stroke-width: 2; stroke-linecap: square"/>
    </g>
    <g id="text_18">
     <!-- Kalman estimate -->
     <g transform="translate(93 72.834688) scale(0.1 -0.1)">
      <use xlink:href="#DejaVuSans-4b"/>
      <use xlink:href="#DejaVuSans-61" transform="translate(63.826172 0)"/>
      <use xlink:href="#DejaVuSans-6c" transform="translate(125.105469 0)"/>
      <use xlink:href="#DejaVuSans-6d" transform="translate(152.888672 0)"/>
      <use xlink:href="#DejaVuSans-61" transform="translate(250.300781 0)"/>
      <use xlink:href="#DejaVuSans-6e" transform="translate(311.580078 0)"/>
      <use xlink:href="#DejaVuSans-20" transform="translate(374.958984 0)"/>
      <use xlink:href="#DejaVuSans-65" transform="translate(406.746094 0)"/>
      <use xlink:href="#DejaVuSans-73" transform="translate(468.269531 0)"/>
      <use xlink:href="#DejaVuSans-74" transform="translate(520.369141 0)"/>
      <use xlink:href="#DejaVuSans-69" transform="translate(559.578125 0)"/>
      <use xlink:href="#DejaVuSans-6d" transform="translate(587.361328 0)"/>
      <use xlink:href="#DejaVuSans-61" transform="translate(684.773438 0)"/>
      <use xlink:href="#DejaVuSans-74" transform="translate(746.052734 0)"/>
      <use xlink:href="#DejaVuSans-65" transform="translate(785.261719 0)"/>
     </g>
    </g>
   </g>
  </g>
 </g>
 <defs>
  <clipPath id="p56d60962c9">
   <rect x="56" y="26.88" width="437.2" height="219.16"/>
  </clipPath>
 </defs>
</svg>
