<?xml version="1.0" encoding="utf-8" standalone="no"?>
<!DOCTYPE svg PUBLIC "-//W3C//DTD SVG 1.1//EN"
  "http://www.w3.org/Graphics/SVG/1.1/DTD/svg11.dtd">
<svg xmlns:xlink="http://www.w3.org/1999/xlink" width="504pt" height="288pt" viewBox="0 0 504 288" xmlns="http://www.w3.org/2000/svg" version="1.1">
 <metadata>
  <rdf:RDF xmlns:dc="http://purl.org/dc/elements/1.1/" xmlns:cc="http://creativecommons.org/ns#" xmlns:rdf="http://www.w3.org/1999/02/22-rdf-syntax-ns#">
   <cc:Work>
    <dc:type rdf:resource="http://purl.org/dc/dcmitype/StillImage"/>
    <dc:date>2026-02-02T15:09:45.701745</dc:date>
    <dc:format>image/svg+xml</dc:format>
    <dc:creator>
     <cc:Agent>
      <dc:title>Matplotlib v3.10.8, https://matplotlib.org/</dc:title>
     </cc:Agent>
    </dc:creator>
   </cc:Work>
  </rdf:RDF>
 </metadata>
 <defs>
  <style type="text/css">*{stroke-linejoin: round; stroke-linecap: butt}</style>
 </defs>
 <g id="figure_1">
  <g id="patch_1">
   <path d="M 0 288 
L 504 288 
L 504 0 
L 0 0 
z
" style="fill: #ffffff"/>
  </g>
  <g id="axes_1">
   <g id="patch_2">
    <path d="M 65.36 246.04 
L 493.2 246.04 
L 493.2 34.56 
L 65.36 34.56 
z
" style="fill: #ffffff"/>
   </g>
   <g id="PathCollection_1">
    <defs>
     <path id="m89e20ea3ad" d="M 0 3 
C 0.795609 3 1.55874 2.683901 2.12132 2.12132 
C 2.683901 1.55874 3 0.795609 3 0 
C 3 -0.795609 2.683901 -1.55874 2.12132 -2.12132 
C 1.55874 -2.683901 0.795609 -3 0 -3 
C -0.795609 -3 -1.55874 -2.683901 -2.12132 -2.12132 
C -2.683901 -1.55874 -3 -0.795609 -3 0 
C -3 0.795609 -2.683901 1.55874 -2.12132 2.12132 
C -1.55874 2.683901 -0.795609 3 0 3 
z
" style="stroke: #000000"/>
    </defs>
    <g clip-path="url(#p4c3f020b30)">
     <use xlink:href="#m89e20ea3ad" x="84.807273" y="183.886943" style="stroke: #000000"/>
     <use xlink:href="#m89e20ea3ad" x="86.761772" y="184.508301" style="stroke: #000000"/>
     <use xlink:href="#m89e20ea3ad" x="88.716272" y="174.774399" style="stroke: #000000"/>
     <use xlink:href="#m89e20ea3ad" x="90.670772" y="164.406692" style="stroke: #000000"/>
     <use xlink:href="#m89e20ea3ad" x="92.625272" y="173.268048" style="stroke: #000000"/>
     <use xlink:href="#m89e20ea3ad" x="94.579772" y="169.348487" style="stroke: #000000"/>
     <use xlink:href="#m89e20ea3ad" x="96.534271" y="152.247451" style="stroke: #000000"/>
     <use xlink:href="#m89e20ea3ad" x="98.488771" y="154.348158" style="stroke: #000000"/>
     <use xlink:href="#m89e20ea3ad" x="100.443271" y="159.612316" style="stroke: #000000"/>
     <use xlink:href="#m89e20ea3ad" x="102.397771" y="148.543518" style="stroke: #000000"/>
     <use xlink:href="#m89e20ea3ad" x="104.35227" y="152.273543" style="stroke: #000000"/>
     <use xlink:href="#m89e20ea3ad" x="106.30677" y="148.770166" style="stroke: #000000"/>
     <use xlink:href="#m89e20ea3ad" x="108.26127" y="140.183262" style="stroke: #000000"/>
     <use xlink:href="#m89e20ea3ad" x="110.21577" y="152.581746" style="stroke: #000000"/>
     <use xlink:href="#m89e20ea3ad" x="112.17027" y="147.996145" style="stroke: #000000"/>
     <use xlink:href="#m89e20ea3ad" x="114.124769" y="136.421615" style="stroke: #000000"/>
     <use xlink:href="#m89e20ea3ad" x="116.079269" y="136.737961" style="stroke: #000000"/>
     <use xlink:href="#m89e20ea3ad" x="118.033769" y="124.218992" style="stroke: #000000"/>
     <use xlink:href="#m89e20ea3ad" x="119.988269" y="130.432127" style="stroke: #000000"/>
     <use xlink:href="#m89e20ea3ad" x="121.942768" y="131.550991" style="stroke: #000000"/>
     <use xlink:href="#m89e20ea3ad" x="123.897268" y="108.147915" style="stroke: #000000"/>
     <use xlink:href="#m89e20ea3ad" x="125.851768" y="118.227609" style="stroke: #000000"/>
     <use xlink:href="#m89e20ea3ad" x="127.806268" y="113.988691" style="stroke: #000000"/>
     <use xlink:href="#m89e20ea3ad" x="129.760767" y="122.936404" style="stroke: #000000"/>
     <use xlink:href="#m89e20ea3ad" x="131.715267" y="114.74431" style="stroke: #000000"/>
     <use xlink:href="#m89e20ea3ad" x="133.669767" y="108.363745" style="stroke: #000000"/>
     <use xlink:href="#m89e20ea3ad" x="135.624267" y="116.14054" style="stroke: #000000"/>
     <use xlink:href="#m89e20ea3ad" x="137.578767" y="103.752705" style="stroke: #000000"/>
     <use xlink:href="#m89e20ea3ad" x="139.533266" y="109.800022" style="stroke: #000000"/>
     <use xlink:href="#m89e20ea3ad" x="141.487766" y="106.652065" style="stroke: #000000"/>
     <use xlink:href="#m89e20ea3ad" x="143.442266" y="108.199815" style="stroke: #000000"/>
     <use xlink:href="#m89e20ea3ad" x="145.396766" y="89.76863" style="stroke: #000000"/>
     <use xlink:href="#m89e20ea3ad" x="147.351265" y="103.028352" style="stroke: #000000"/>
     <use xlink:href="#m89e20ea3ad" x="149.305765" y="110.477781" style="stroke: #000000"/>
     <use xlink:href="#m89e20ea3ad" x="151.260265" y="96.777668" style="stroke: #000000"/>
     <use xlink:href="#m89e20ea3ad" x="153.214765" y="111.877685" style="stroke: #000000"/>
     <use xlink:href="#m89e20ea3ad" x="155.169265" y="101.824093" style="stroke: #000000"/>
     <use xlink:href="#m89e20ea3ad" x="157.123764" y="118.193867" style="stroke: #000000"/>
     <use xlink:href="#m89e20ea3ad" x="159.078264" y="114.31537" style="stroke: #000000"/>
     <use xlink:href="#m89e20ea3ad" x="161.032764" y="104.091684" style="stroke: #000000"/>
     <use xlink:href="#m89e20ea3ad" x="162.987264" y="101.210655" style="stroke: #000000"/>
     <use xlink:href="#m89e20ea3ad" x="164.941763" y="106.582364" style="stroke: #000000"/>
     <use xlink:href="#m89e20ea3ad" x="166.896263" y="110.072916" style="stroke: #000000"/>
     <use xlink:href="#m89e20ea3ad" x="168.850763" y="112.980049" style="stroke: #000000"/>
     <use xlink:href="#m89e20ea3ad" x="170.805263" y="123.275207" style="stroke: #000000"/>
     <use xlink:href="#m89e20ea3ad" x="172.759762" y="119.595745" style="stroke: #000000"/>
     <use xlink:href="#m89e20ea3ad" x="174.714262" y="119.701322" style="stroke: #000000"/>
     <use xlink:href="#m89e20ea3ad" x="176.668762" y="110.76286" style="stroke: #000000"/>
     <use xlink:href="#m89e20ea3ad" x="178.623262" y="118.229111" style="stroke: #000000"/>
     <use xlink:href="#m89e20ea3ad" x="180.577762" y="135.980275" style="stroke: #000000"/>
     <use xlink:href="#m89e20ea3ad" x="182.532261" y="123.257969" style="stroke: #000000"/>
     <use xlink:href="#m89e20ea3ad" x="184.486761" y="131.04111" style="stroke: #000000"/>
     <use xlink:href="#m89e20ea3ad" x="186.441261" y="135.881915" style="stroke: #000000"/>
     <use xlink:href="#m89e20ea3ad" x="188.395761" y="129.288878" style="stroke: #000000"/>
     <use xlink:href="#m89e20ea3ad" x="190.35026" y="129.122452" style="stroke: #000000"/>
     <use xlink:href="#m89e20ea3ad" x="192.30476" y="132.819877" style="stroke: #000000"/>
     <use xlink:href="#m89e20ea3ad" x="194.25926" y="148.773656" style="stroke: #000000"/>
     <use xlink:href="#m89e20ea3ad" x="196.21376" y="148.008481" style="stroke: #000000"/>
     <use xlink:href="#m89e20ea3ad" x="198.168259" y="146.489936" style="stroke: #000000"/>
     <use xlink:href="#m89e20ea3ad" x="200.122759" y="144.987249" style="stroke: #000000"/>
     <use xlink:href="#m89e20ea3ad" x="202.077259" y="158.829539" style="stroke: #000000"/>
     <use xlink:href="#m89e20ea3ad" x="204.031759" y="159.945812" style="stroke: #000000"/>
     <use xlink:href="#m89e20ea3ad" x="205.986259" y="169.935156" style="stroke: #000000"/>
     <use xlink:href="#m89e20ea3ad" x="207.940758" y="173.872136" style="stroke: #000000"/>
     <use xlink:href="#m89e20ea3ad" x="209.895258" y="162.500218" style="stroke: #000000"/>
     <use xlink:href="#m89e20ea3ad" x="211.849758" y="161.803603" style="stroke: #000000"/>
     <use xlink:href="#m89e20ea3ad" x="213.804258" y="175.470908" style="stroke: #000000"/>
     <use xlink:href="#m89e20ea3ad" x="215.758757" y="170.846612" style="stroke: #000000"/>
     <use xlink:href="#m89e20ea3ad" x="217.713257" y="178.711721" style="stroke: #000000"/>
     <use xlink:href="#m89e20ea3ad" x="219.667757" y="189.191548" style="stroke: #000000"/>
     <use xlink:href="#m89e20ea3ad" x="221.622257" y="184.931095" style="stroke: #000000"/>
     <use xlink:href="#m89e20ea3ad" x="223.576757" y="179.365781" style="stroke: #000000"/>
     <use xlink:href="#m89e20ea3ad" x="225.531256" y="193.790427" style="stroke: #000000"/>
     <use xlink:href="#m89e20ea3ad" x="227.485756" y="184.980593" style="stroke: #000000"/>
     <use xlink:href="#m89e20ea3ad" x="229.440256" y="218.277174" style="stroke: #000000"/>
     <use xlink:href="#m89e20ea3ad" x="231.394756" y="195.852316" style="stroke: #000000"/>
     <use xlink:href="#m89e20ea3ad" x="233.349255" y="203.786959" style="stroke: #000000"/>
     <use xlink:href="#m89e20ea3ad" x="235.303755" y="209.065874" style="stroke: #000000"/>
     <use xlink:href="#m89e20ea3ad" x="237.258255" y="208.559972" style="stroke: #000000"/>
     <use xlink:href="#m89e20ea3ad" x="239.212755" y="225.945748" style="stroke: #000000"/>
     <use xlink:href="#m89e20ea3ad" x="241.167254" y="215.137736" style="stroke: #000000"/>
     <use xlink:href="#m89e20ea3ad" x="243.121754" y="212.879806" style="stroke: #000000"/>
     <use xlink:href="#m89e20ea3ad" x="245.076254" y="206.510166" style="stroke: #000000"/>
     <use xlink:href="#m89e20ea3ad" x="247.030754" y="222.726562" style="stroke: #000000"/>
     <use xlink:href="#m89e20ea3ad" x="248.985254" y="226.345471" style="stroke: #000000"/>
     <use xlink:href="#m89e20ea3ad" x="250.939753" y="225.451213" style="stroke: #000000"/>
     <use xlink:href="#m89e20ea3ad" x="252.894253" y="216.294286" style="stroke: #000000"/>
     <use xlink:href="#m89e20ea3ad" x="254.848753" y="221.586261" style="stroke: #000000"/>
     <use xlink:href="#m89e20ea3ad" x="256.803253" y="228.690731" style="stroke: #000000"/>
     <use xlink:href="#m89e20ea3ad" x="258.757752" y="221.751753" style="stroke: #000000"/>
     <use xlink:href="#m89e20ea3ad" x="260.712252" y="225.280335" style="stroke: #000000"/>
     <use xlink:href="#m89e20ea3ad" x="262.666752" y="219.237709" style="stroke: #000000"/>
     <use xlink:href="#m89e20ea3ad" x="264.621252" y="231.558629" style="stroke: #000000"/>
     <use xlink:href="#m89e20ea3ad" x="266.575751" y="228.781364" style="stroke: #000000"/>
     <use xlink:href="#m89e20ea3ad" x="268.530251" y="229.023047" style="stroke: #000000"/>
     <use xlink:href="#m89e20ea3ad" x="270.484751" y="236.427273" style="stroke: #000000"/>
     <use xlink:href="#m89e20ea3ad" x="272.439251" y="222.999495" style="stroke: #000000"/>
     <use xlink:href="#m89e20ea3ad" x="274.393751" y="222.480772" style="stroke: #000000"/>
     <use xlink:href="#m89e20ea3ad" x="276.34825" y="223.39255" style="stroke: #000000"/>
     <use xlink:href="#m89e20ea3ad" x="278.30275" y="224.006748" style="stroke: #000000"/>
     <use xlink:href="#m89e20ea3ad" x="280.25725" y="231.30808" style="stroke: #000000"/>
     <use xlink:href="#m89e20ea3ad" x="282.21175" y="222.566273" style="stroke: #000000"/>
     <use xlink:href="#m89e20ea3ad" x="284.166249" y="220.339607" style="stroke: #000000"/>
     <use xlink:href="#m89e20ea3ad" x="286.120749" y="221.864668" style="stroke: #000000"/>
     <use xlink:href="#m89e20ea3ad" x="288.075249" y="215.197076" style="stroke: #000000"/>
     <use xlink:href="#m89e20ea3ad" x="290.029749" y="208.92025" style="stroke: #000000"/>
     <use xlink:href="#m89e20ea3ad" x="291.984249" y="195.799637" style="stroke: #000000"/>
     <use xlink:href="#m89e20ea3ad" x="293.938748" y="205.822675" style="stroke: #000000"/>
     <use xlink:href="#m89e20ea3ad" x="295.893248" y="202.609424" style="stroke: #000000"/>
     <use xlink:href="#m89e20ea3ad" x="297.847748" y="202.282099" style="stroke: #000000"/>
     <use xlink:href="#m89e20ea3ad" x="299.802248" y="212.850882" style="stroke: #000000"/>
     <use xlink:href="#m89e20ea3ad" x="301.756747" y="196.036139" style="stroke: #000000"/>
     <use xlink:href="#m89e20ea3ad" x="303.711247" y="192.268925" style="stroke: #000000"/>
     <use xlink:href="#m89e20ea3ad" x="305.665747" y="171.491604" style="stroke: #000000"/>
     <use xlink:href="#m89e20ea3ad" x="307.620247" y="187.504295" style="stroke: #000000"/>
     <use xlink:href="#m89e20ea3ad" x="309.574746" y="180.443832" style="stroke: #000000"/>
     <use xlink:href="#m89e20ea3ad" x="311.529246" y="179.346003" style="stroke: #000000"/>
     <use xlink:href="#m89e20ea3ad" x="313.483746" y="183.982002" style="stroke: #000000"/>
     <use xlink:href="#m89e20ea3ad" x="315.438246" y="163.409994" style="stroke: #000000"/>
     <use xlink:href="#m89e20ea3ad" x="317.392746" y="162.481249" style="stroke: #000000"/>
     <use xlink:href="#m89e20ea3ad" x="319.347245" y="158.356511" style="stroke: #000000"/>
     <use xlink:href="#m89e20ea3ad" x="321.301745" y="166.868999" style="stroke: #000000"/>
     <use xlink:href="#m89e20ea3ad" x="323.256245" y="146.071165" style="stroke: #000000"/>
     <use xlink:href="#m89e20ea3ad" x="325.210745" y="162.562615" style="stroke: #000000"/>
     <use xlink:href="#m89e20ea3ad" x="327.165244" y="144.0668" style="stroke: #000000"/>
     <use xlink:href="#m89e20ea3ad" x="329.119744" y="128.364853" style="stroke: #000000"/>
     <use xlink:href="#m89e20ea3ad" x="331.074244" y="147.555994" style="stroke: #000000"/>
     <use xlink:href="#m89e20ea3ad" x="333.028744" y="140.453397" style="stroke: #000000"/>
     <use xlink:href="#m89e20ea3ad" x="334.983243" y="131.599919" style="stroke: #000000"/>
     <use xlink:href="#m89e20ea3ad" x="336.937743" y="132.024419" style="stroke: #000000"/>
     <use xlink:href="#m89e20ea3ad" x="338.892243" y="135.718202" style="stroke: #000000"/>
     <use xlink:href="#m89e20ea3ad" x="340.846743" y="120.002192" style="stroke: #000000"/>
     <use xlink:href="#m89e20ea3ad" x="342.801243" y="124.393622" style="stroke: #000000"/>
     <use xlink:href="#m89e20ea3ad" x="344.755742" y="109.390297" style="stroke: #000000"/>
     <use xlink:href="#m89e20ea3ad" x="346.710242" y="115.816051" style="stroke: #000000"/>
     <use xlink:href="#m89e20ea3ad" x="348.664742" y="94.14318" style="stroke: #000000"/>
     <use xlink:href="#m89e20ea3ad" x="350.619242" y="107.582467" style="stroke: #000000"/>
     <use xlink:href="#m89e20ea3ad" x="352.573741" y="100.729438" style="stroke: #000000"/>
     <use xlink:href="#m89e20ea3ad" x="354.528241" y="89.055277" style="stroke: #000000"/>
     <use xlink:href="#m89e20ea3ad" x="356.482741" y="100.681425" style="stroke: #000000"/>
     <use xlink:href="#m89e20ea3ad" x="358.437241" y="86.871352" style="stroke: #000000"/>
     <use xlink:href="#m89e20ea3ad" x="360.391741" y="75.942893" style="stroke: #000000"/>
     <use xlink:href="#m89e20ea3ad" x="362.34624" y="94.275699" style="stroke: #000000"/>
     <use xlink:href="#m89e20ea3ad" x="364.30074" y="78.410093" style="stroke: #000000"/>
     <use xlink:href="#m89e20ea3ad" x="366.25524" y="75.206416" style="stroke: #000000"/>
     <use xlink:href="#m89e20ea3ad" x="368.20974" y="68.889239" style="stroke: #000000"/>
     <use xlink:href="#m89e20ea3ad" x="370.164239" y="81.254265" style="stroke: #000000"/>
     <use xlink:href="#m89e20ea3ad" x="372.118739" y="79.658358" style="stroke: #000000"/>
     <use xlink:href="#m89e20ea3ad" x="374.073239" y="64.174419" style="stroke: #000000"/>
     <use xlink:href="#m89e20ea3ad" x="376.027739" y="63.933759" style="stroke: #000000"/>
     <use xlink:href="#m89e20ea3ad" x="377.982238" y="62.559001" style="stroke: #000000"/>
     <use xlink:href="#m89e20ea3ad" x="379.936738" y="60.316233" style="stroke: #000000"/>
     <use xlink:href="#m89e20ea3ad" x="381.891238" y="66.434491" style="stroke: #000000"/>
     <use xlink:href="#m89e20ea3ad" x="383.845738" y="58.587826" style="stroke: #000000"/>
     <use xlink:href="#m89e20ea3ad" x="385.800238" y="57.130301" style="stroke: #000000"/>
     <use xlink:href="#m89e20ea3ad" x="387.754737" y="63.644769" style="stroke: #000000"/>
     <use xlink:href="#m89e20ea3ad" x="389.709237" y="44.172727" style="stroke: #000000"/>
     <use xlink:href="#m89e20ea3ad" x="391.663737" y="53.855272" style="stroke: #000000"/>
     <use xlink:href="#m89e20ea3ad" x="393.618237" y="65.712831" style="stroke: #000000"/>
     <use xlink:href="#m89e20ea3ad" x="395.572736" y="52.12849" style="stroke: #000000"/>
     <use xlink:href="#m89e20ea3ad" x="397.527236" y="64.102367" style="stroke: #000000"/>
     <use xlink:href="#m89e20ea3ad" x="399.481736" y="51.507826" style="stroke: #000000"/>
     <use xlink:href="#m89e20ea3ad" x="401.436236" y="49.232728" style="stroke: #000000"/>
     <use xlink:href="#m89e20ea3ad" x="403.390735" y="64.281271" style="stroke: #000000"/>
     <use xlink:href="#m89e20ea3ad" x="405.345235" y="52.054161" style="stroke: #000000"/>
     <use xlink:href="#m89e20ea3ad" x="407.299735" y="57.027686" style="stroke: #000000"/>
     <use xlink:href="#m89e20ea3ad" x="409.254235" y="55.168023" style="stroke: #000000"/>
     <use xlink:href="#m89e20ea3ad" x="411.208735" y="48.618973" style="stroke: #000000"/>
     <use xlink:href="#m89e20ea3ad" x="413.163234" y="65.694661" style="stroke: #000000"/>
     <use xlink:href="#m89e20ea3ad" x="415.117734" y="71.008861" style="stroke: #000000"/>
     <use xlink:href="#m89e20ea3ad" x="417.072234" y="73.75639" style="stroke: #000000"/>
     <use xlink:href="#m89e20ea3ad" x="419.026734" y="75.121514" style="stroke: #000000"/>
     <use xlink:href="#m89e20ea3ad" x="420.981233" y="71.775958" style="stroke: #000000"/>
     <use xlink:href="#m89e20ea3ad" x="422.935733" y="70.901713" style="stroke: #000000"/>
     <use xlink:href="#m89e20ea3ad" x="424.890233" y="73.675962" style="stroke: #000000"/>
     <use xlink:href="#m89e20ea3ad" x="426.844733" y="72.085566" style="stroke: #000000"/>
     <use xlink:href="#m89e20ea3ad" x="428.799233" y="80.563091" style="stroke: #000000"/>
     <use xlink:href="#m89e20ea3ad" x="430.753732" y="72.701216" style="stroke: #000000"/>
     <use xlink:href="#m89e20ea3ad" x="432.708232" y="87.978403" style="stroke: #000000"/>
     <use xlink:href="#m89e20ea3ad" x="434.662732" y="69.042799" style="stroke: #000000"/>
     <use xlink:href="#m89e20ea3ad" x="436.617232" y="87.239511" style="stroke: #000000"/>
     <use xlink:href="#m89e20ea3ad" x="438.571731" y="101.049742" style="stroke: #000000"/>
     <use xlink:href="#m89e20ea3ad" x="440.526231" y="105.669882" style="stroke: #000000"/>
     <use xlink:href="#m89e20ea3ad" x="442.480731" y="97.458848" style="stroke: #000000"/>
     <use xlink:href="#m89e20ea3ad" x="444.435231" y="105.776775" style="stroke: #000000"/>
     <use xlink:href="#m89e20ea3ad" x="446.38973" y="102.148275" style="stroke: #000000"/>
     <use xlink:href="#m89e20ea3ad" x="448.34423" y="107.14554" style="stroke: #000000"/>
     <use xlink:href="#m89e20ea3ad" x="450.29873" y="114.392402" style="stroke: #000000"/>
     <use xlink:href="#m89e20ea3ad" x="452.25323" y="123.31519" style="stroke: #000000"/>
     <use xlink:href="#m89e20ea3ad" x="454.20773" y="131.46997" style="stroke: #000000"/>
     <use xlink:href="#m89e20ea3ad" x="456.162229" y="126.954833" style="stroke: #000000"/>
     <use xlink:href="#m89e20ea3ad" x="458.116729" y="120.714942" style="stroke: #000000"/>
     <use xlink:href="#m89e20ea3ad" x="460.071229" y="128.640842" style="stroke: #000000"/>
     <use xlink:href="#m89e20ea3ad" x="462.025729" y="142.498063" style="stroke: #000000"/>
     <use xlink:href="#m89e20ea3ad" x="463.980228" y="135.316749" style="stroke: #000000"/>
     <use xlink:href="#m89e20ea3ad" x="465.934728" y="136.888251" style="stroke: #000000"/>
     <use xlink:href="#m89e20ea3ad" x="467.889228" y="149.206288" style="stroke: #000000"/>
     <use xlink:href="#m89e20ea3ad" x="469.843728" y="144.631861" style="stroke: #000000"/>
     <use xlink:href="#m89e20ea3ad" x="471.798228" y="148.247128" style="stroke: #000000"/>
     <use xlink:href="#m89e20ea3ad" x="473.752727" y="159.843761" style="stroke: #000000"/>
    </g>
   </g>
   <g id="matplotlib.axis_1">
    <g id="xtick_1">
     <g id="line2d_1">
      <defs>
       <path id="m604804bb25" d="M 0 0 
L 0 3.5 
" style="stroke: #000000; stroke-width: 0.8"/>
      </defs>
      <g>
       <use xlink:href="#m604804bb25" x="84.807273" y="246.04" style="stroke: #000000; stroke-width: 0.8"/>
      </g>
     </g>
     <g id="text_1">
      <!-- 0 -->
      <g transform="translate(81.626023 260.638438) scale(0.1 -0.1)">
       <defs>
        <path id="DejaVuSans-30" d="M 2034 4250 
Q 1547 4250 1301 3770 
Q 1056 3291 1056 2328 
Q 1056 1369 1301 889 
Q 1547 409 2034 409 
Q 2525 409 2770 889 
Q 3016 1369 3016 2328 
Q 3016 3291 2770 3770 
Q 2525 4250 2034 4250 
z
M 2034 4750 
Q 2819 4750 3233 4129 
Q 3647 3509 3647 2328 
Q 3647 1150 3233 529 
Q 2819 -91 2034 -91 
Q 1250 -91 836 529 
Q 422 1150 422 2328 
Q 422 3509 836 4129 
Q 1250 4750 2034 4750 
z
" transform="scale(0.015625)"/>
       </defs>
       <use xlink:href="#DejaVuSans-30"/>
      </g>
     </g>
    </g>
    <g id="xtick_2">
     <g id="line2d_2">
      <g>
       <use xlink:href="#m604804bb25" x="162.987264" y="246.04" style="stroke: #000000; stroke-width: 0.8"/>
      </g>
     </g>
     <g id="text_2">
      <!-- 2 -->
      <g transform="translate(159.806014 260.638438) scale(0.1 -0.1)">
       <defs>
        <path id="DejaVuSans-32" d="M 1228 531 
L 3431 531 
L 3431 0 
L 469 0 
L 469 531 
Q 828 903 1448 1529 
Q 2069 2156 2228 2338 
Q 2531 2678 2651 2914 
Q 2772 3150 2772 3378 
Q 2772 3750 2511 3984 
Q 2250 4219 1831 4219 
Q 1534 4219 1204 4116 
Q 875 4013 500 3803 
L 500 4441 
Q 881 4594 1212 4672 
Q 1544 4750 1819 4750 
Q 2544 4750 2975 4387 
Q 3406 4025 3406 3419 
Q 3406 3131 3298 2873 
Q 3191 2616 2906 2266 
Q 2828 2175 2409 1742 
Q 1991 1309 1228 531 
z
" transform="scale(0.015625)"/>
       </defs>
       <use xlink:href="#DejaVuSans-32"/>
      </g>
     </g>
    </g>
    <g id="xtick_3">
     <g id="line2d_3">
      <g>
       <use xlink:href="#m604804bb25" x="241.167254" y="246.04" style="stroke: #000000; stroke-width: 0.8"/>
      </g>
     </g>
     <g id="text_3">
      <!-- 4 -->
      <g transform="translate(237.986004 260.638438) scale(0.1 -0.1)">
       <defs>
        <path id="DejaVuSans-34" d="M 2419 4116 
L 825 1625 
L 2419 1625 
L 2419 4116 
z
M 2253 4666 
L 3047 4666 
L 3047 1625 
L 3713 1625 
L 3713 1100 
L 3047 1100 
L 3047 0 
L 2419 0 
L 2419 1100 
L 313 1100 
L 313 1709 
L 2253 4666 
z
" transform="scale(0.015625)"/>
       </defs>
       <use xlink:href="#DejaVuSans-34"/>
      </g>
     </g>
    </g>
    <g id="xtick_4">
     <g id="line2d_4">
      <g>
       <use xlink:href="#m604804bb25" x="319.347245" y="246.04" style="stroke: #000000; stroke-width: 0.8"/>
      </g>
     </g>
     <g id="text_4">
      <!-- 6 -->
      <g transform="translate(316.165995 260.638438) scale(0.1 -0.1)">
       <defs>
        <path id="DejaVuSans-36" d="M 2113 2584 
Q 1688 2584 1439 2293 
Q 1191 2003 1191 1497 
Q 1191 994 1439 701 
Q 1688 409 2113 409 
Q 2538 409 2786 701 
Q 3034 994 3034 1497 
Q 3034 2003 2786 2293 
Q 2538 2584 2113 2584 
z
M 3366 4563 
L 3366 3988 
Q 3128 4100 2886 4159 
Q 2644 4219 2406 4219 
Q 1781 4219 1451 3797 
Q 1122 3375 1075 2522 
Q 1259 2794 1537 2939 
Q 1816 3084 2150 3084 
Q 2853 3084 3261 2657 
Q 3669 2231 3669 1497 
Q 3669 778 3244 343 
Q 2819 -91 2113 -91 
Q 1303 -91 875 529 
Q 447 1150 447 2328 
Q 447 3434 972 4092 
Q 1497 4750 2381 4750 
Q 2619 4750 2861 4703 
Q 3103 4656 3366 4563 
z
" transform="scale(0.015625)"/>
       </defs>
       <use xlink:href="#DejaVuSans-36"/>
      </g>
     </g>
    </g>
    <g id="xtick_5">
     <g id="line2d_5">
      <g>
       <use xlink:href="#m604804bb25" x="397.527236" y="246.04" style="stroke: #000000; stroke-width: 0.8"/>
      </g>
     </g>
     <g id="text_5">
      <!-- 8 -->
      <g transform="translate(394.345986 260.638438) scale(0.1 -0.1)">
       <defs>
        <path id="DejaVuSans-38" d="M 2034 2216 
Q 1584 2216 1326 1975 
Q 1069 1734 1069 1313 
Q 1069 891 1326 650 
Q 1584 409 2034 409 
Q 2484 409 2743 651 
Q 3003 894 3003 1313 
Q 3003 1734 2745 1975 
Q 2488 2216 2034 2216 
z
M 1403 2484 
Q 997 2584 770 2862 
Q 544 3141 544 3541 
Q 544 4100 942 4425 
Q 1341 4750 2034 4750 
Q 2731 4750 3128 4425 
Q 3525 4100 3525 3541 
Q 3525 3141 3298 2862 
Q 3072 2584 2669 2484 
Q 3125 2378 3379 2068 
Q 3634 1759 3634 1313 
Q 3634 634 3220 271 
Q 2806 -91 2034 -91 
Q 1263 -91 848 271 
Q 434 634 434 1313 
Q 434 1759 690 2068 
Q 947 2378 1403 2484 
z
M 1172 3481 
Q 1172 3119 1398 2916 
Q 1625 2713 2034 2713 
Q 2441 2713 2670 2916 
Q 2900 3119 2900 3481 
Q 2900 3844 2670 4047 
Q 2441 4250 2034 4250 
Q 1625 4250 1398 4047 
Q 1172 3844 1172 3481 
z
" transform="scale(0.015625)"/>
       </defs>
       <use xlink:href="#DejaVuSans-38"/>
      </g>
     </g>
    </g>
    <g id="xtick_6">
     <g id="line2d_6">
      <g>
       <use xlink:href="#m604804bb25" x="475.707227" y="246.04" style="stroke: #000000; stroke-width: 0.8"/>
      </g>
     </g>
     <g id="text_6">
      <!-- 10 -->
      <g transform="translate(469.344727 260.638438) scale(0.1 -0.1)">
       <defs>
        <path id="DejaVuSans-31" d="M 794 531 
L 1825 531 
L 1825 4091 
L 703 3866 
L 703 4441 
L 1819 4666 
L 2450 4666 
L 2450 531 
L 3481 531 
L 3481 0 
L 794 0 
L 794 531 
z
" transform="scale(0.015625)"/>
       </defs>
       <use xlink:href="#DejaVuSans-31"/>
       <use xlink:href="#DejaVuSans-30" transform="translate(63.623047 0)"/>
      </g>
     </g>
    </g>
    <g id="text_7">
     <!-- Time -->
     <g transform="translate(267.046406 274.316562) scale(0.1 -0.1)">
      <defs>
       <path id="DejaVuSans-54" d="M -19 4666 
L 3928 4666 
L 3928 4134 
L 2272 4134 
L 2272 0 
L 1638 0 
L 1638 4134 
L -19 4134 
L -19 4666 
z
" transform="scale(0.015625)"/>
       <path id="DejaVuSans-69" d="M 603 3500 
L 1178 3500 
L 1178 0 
L 603 0 
L 603 3500 
z
M 603 4863 
L 1178 4863 
L 1178 4134 
L 603 4134 
L 603 4863 
z
" transform="scale(0.015625)"/>
       <path id="DejaVuSans-6d" d="M 3328 2828 
Q 3544 3216 3844 3400 
Q 4144 3584 4550 3584 
Q 5097 3584 5394 3201 
Q 5691 2819 5691 2113 
L 5691 0 
L 5113 0 
L 5113 2094 
Q 5113 2597 4934 2840 
Q 4756 3084 4391 3084 
Q 3944 3084 3684 2787 
Q 3425 2491 3425 1978 
L 3425 0 
L 2847 0 
L 2847 2094 
Q 2847 2600 2669 2842 
Q 2491 3084 2119 3084 
Q 1678 3084 1418 2786 
Q 1159 2488 1159 1978 
L 1159 0 
L 581 0 
L 581 3500 
L 1159 3500 
L 1159 2956 
Q 1356 3278 1631 3431 
Q 1906 3584 2284 3584 
Q 2666 3584 2933 3390 
Q 3200 3197 3328 2828 
z
" transform="scale(0.015625)"/>
       <path id="DejaVuSans-65" d="M 3597 1894 
L 3597 1613 
L 953 1613 
Q 991 1019 1311 708 
Q 1631 397 2203 397 
Q 2534 397 2845 478 
Q 3156 559 3463 722 
L 3463 178 
Q 3153 47 2828 -22 
Q 2503 -91 2169 -91 
Q 1331 -91 842 396 
Q 353 884 353 1716 
Q 353 2575 817 3079 
Q 1281 3584 2069 3584 
Q 2775 3584 3186 3129 
Q 3597 2675 3597 1894 
z
M 3022 2063 
Q 3016 2534 2758 2815 
Q 2500 3097 2075 3097 
Q 1594 3097 1305 2825 
Q 1016 2553 972 2059 
L 3022 2063 
z
" transform="scale(0.015625)"/>
      </defs>
      <use xlink:href="#DejaVuSans-54"/>
      <use xlink:href="#DejaVuSans-69" transform="translate(57.958984 0)"/>
      <use xlink:href="#DejaVuSans-6d" transform="translate(85.742188 0)"/>
      <use xlink:href="#DejaVuSans-65" transform="translate(183.154297 0)"/>
     </g>
    </g>
   </g>
   <g id="matplotlib.axis_2">
    <g id="ytick_1">
     <g id="line2d_7">
      <defs>
       <path id="mf41868c0b2" d="M 0 0 
L -3.5 0 
" style="stroke: #000000; stroke-width: 0.8"/>
      </defs>
      <g>
       <use xlink:href="#mf41868c0b2" x="65.36" y="223.98036" style="stroke: #000000; stroke-width: 0.8"/>
      </g>
     </g>
     <g id="text_8">
      <!-- −0.5 -->
      <g transform="translate(34.077188 227.779578) scale(0.1 -0.1)">
       <defs>
        <path id="DejaVuSans-2212" d="M 678 2272 
L 4684 2272 
L 4684 1741 
L 678 1741 
L 678 2272 
z
" transform="scale(0.015625)"/>
        <path id="DejaVuSans-2e" d="M 684 794 
L 1344 794 
L 1344 0 
L 684 0 
L 684 794 
z
" transform="scale(0.015625)"/>
        <path id="DejaVuSans-35" d="M 691 4666 
L 3169 4666 
L 3169 4134 
L 1269 4134 
L 1269 2991 
Q 1406 3038 1543 3061 
Q 1681 3084 1819 3084 
Q 2600 3084 3056 2656 
Q 3513 2228 3513 1497 
Q 3513 744 3044 326 
Q 2575 -91 1722 -91 
Q 1428 -91 1123 -41 
Q 819 9 494 109 
L 494 744 
Q 775 591 1075 516 
Q 1375 441 1709 441 
Q 2250 441 2565 725 
Q 2881 1009 2881 1497 
Q 2881 1984 2565 2268 
Q 2250 2553 1709 2553 
Q 1456 2553 1204 2497 
Q 953 2441 691 2322 
L 691 4666 
z
" transform="scale(0.015625)"/>
       </defs>
       <use xlink:href="#DejaVuSans-2212"/>
       <use xlink:href="#DejaVuSans-30" transform="translate(83.789062 0)"/>
       <use xlink:href="#DejaVuSans-2e" transform="translate(147.412109 0)"/>
       <use xlink:href="#DejaVuSans-35" transform="translate(179.199219 0)"/>
      </g>
     </g>
    </g>
    <g id="ytick_2">
     <g id="line2d_8">
      <g>
       <use xlink:href="#mf41868c0b2" x="65.36" y="187.51001" style="stroke: #000000; stroke-width: 0.8"/>
      </g>
     </g>
     <g id="text_9">
      <!-- 0.0 -->
      <g transform="translate(42.456875 191.309229) scale(0.1 -0.1)">
       <use xlink:href="#DejaVuSans-30"/>
       <use xlink:href="#DejaVuSans-2e" transform="translate(63.623047 0)"/>
       <use xlink:href="#DejaVuSans-30" transform="translate(95.410156 0)"/>
      </g>
     </g>
    </g>
    <g id="ytick_3">
     <g id="line2d_9">
      <g>
       <use xlink:href="#mf41868c0b2" x="65.36" y="151.039661" style="stroke: #000000; stroke-width: 0.8"/>
      </g>
     </g>
     <g id="text_10">
      <!-- 0.5 -->
      <g transform="translate(42.456875 154.83888) scale(0.1 -0.1)">
       <use xlink:href="#DejaVuSans-30"/>
       <use xlink:href="#DejaVuSans-2e" transform="translate(63.623047 0)"/>
       <use xlink:href="#DejaVuSans-35" transform="translate(95.410156 0)"/>
      </g>
     </g>
    </g>
    <g id="ytick_4">
     <g id="line2d_10">
      <g>
       <use xlink:href="#mf41868c0b2" x="65.36" y="114.569312" style="stroke: #000000; stroke-width: 0.8"/>
      </g>
     </g>
     <g id="text_11">
      <!-- 1.0 -->
      <g transform="translate(42.456875 118.368531) scale(0.1 -0.1)">
       <use xlink:href="#DejaVuSans-31"/>
       <use xlink:href="#DejaVuSans-2e" transform="translate(63.623047 0)"/>
       <use xlink:href="#DejaVuSans-30" transform="translate(95.410156 0)"/>
      </g>
     </g>
    </g>
    <g id="ytick_5">
     <g id="line2d_11">
      <g>
       <use xlink:href="#mf41868c0b2" x="65.36" y="78.098963" style="stroke: #000000; stroke-width: 0.8"/>
      </g>
     </g>
     <g id="text_12">
      <!-- 1.5 -->
      <g transform="translate(42.456875 81.898182) scale(0.1 -0.1)">
       <use xlink:href="#DejaVuSans-31"/>
       <use xlink:href="#DejaVuSans-2e" transform="translate(63.623047 0)"/>
       <use xlink:href="#DejaVuSans-35" transform="translate(95.410156 0)"/>
      </g>
     </g>
    </g>
    <g id="ytick_6">
     <g id="line2d_12">
      <g>
       <use xlink:href="#mf41868c0b2" x="65.36" y="41.628614" style="stroke: #000000; stroke-width: 0.8"/>
      </g>
     </g>
     <g id="text_13">
      <!-- 2.0 -->
      <g transform="translate(42.456875 45.427833) scale(0.1 -0.1)">
       <use xlink:href="#DejaVuSans-32"/>
       <use xlink:href="#DejaVuSans-2e" transform="translate(63.623047 0)"/>
       <use xlink:href="#DejaVuSans-30" transform="translate(95.410156 0)"/>
      </g>
     </g>
    </g>
    <g id="text_14">
     <!-- Position -->
     <g transform="translate(10.613125 138.220312) scale(0.1 -0.1)">
      <defs>
       <path id="DejaVuSans-50" d="M 1259 4147 
L 1259 2394 
L 2053 2394 
Q 2494 2394 2734 2622 
Q 2975 2850 2975 3272 
Q 2975 3691 2734 3919 
Q 2494 4147 2053 4147 
L 1259 4147 
z
M 628 4666 
L 2053 4666 
Q 2838 4666 3239 4311 
Q 3641 3956 3641 3272 
Q 3641 2581 3239 2228 
Q 2838 1875 2053 1875 
L 1259 1875 
L 1259 0 
L 628 0 
L 628 4666 
z
" transform="scale(0.015625)"/>
       <path id="DejaVuSans-6f" d="M 1959 3097 
Q 1497 3097 1228 2736 
Q 959 2375 959 1747 
Q 959 1119 1226 758 
Q 1494 397 1959 397 
Q 2419 397 2687 759 
Q 2956 1122 2956 1747 
Q 2956 2369 2687 2733 
Q 2419 3097 1959 3097 
z
M 1959 3584 
Q 2709 3584 3137 3096 
Q 3566 2609 3566 1747 
Q 3566 888 3137 398 
Q 2709 -91 1959 -91 
Q 1206 -91 779 398 
Q 353 888 353 1747 
Q 353 2609 779 3096 
Q 1206 3584 1959 3584 
z
" transform="scale(0.015625)"/>
       <path id="DejaVuSans-73" d="M 2834 3397 
L 2834 2853 
Q 2591 2978 2328 3040 
Q 2066 3103 1784 3103 
Q 1356 3103 1142 2972 
Q 928 2841 928 2578 
Q 928 2378 1081 2264 
Q 1234 2150 1697 2047 
L 1894 2003 
Q 2506 1872 2764 1633 
Q 3022 1394 3022 966 
Q 3022 478 2636 193 
Q 2250 -91 1575 -91 
Q 1294 -91 989 -36 
Q 684 19 347 128 
L 347 722 
Q 666 556 975 473 
Q 1284 391 1588 391 
Q 1994 391 2212 530 
Q 2431 669 2431 922 
Q 2431 1156 2273 1281 
Q 2116 1406 1581 1522 
L 1381 1569 
Q 847 1681 609 1914 
Q 372 2147 372 2553 
Q 372 3047 722 3315 
Q 1072 3584 1716 3584 
Q 2034 3584 2315 3537 
Q 2597 3491 2834 3397 
z
" transform="scale(0.015625)"/>
       <path id="DejaVuSans-74" d="M 1172 4494 
L 1172 3500 
L 2356 3500 
L 2356 3053 
L 1172 3053 
L 1172 1153 
Q 1172 725 1289 603 
Q 1406 481 1766 481 
L 2356 481 
L 2356 0 
L 1766 0 
Q 1100 0 847 248 
Q 594 497 594 1153 
L 594 3053 
L 172 3053 
L 172 3500 
L 594 3500 
L 594 4494 
L 1172 4494 
z
" transform="scale(0.015625)"/>
       <path id="DejaVuSans-6e" d="M 3513 2113 
L 3513 0 
L 2938 0 
L 2938 2094 
Q 2938 2591 2744 2837 
Q 2550 3084 2163 3084 
Q 1697 3084 1428 2787 
Q 1159 2491 1159 1978 
L 1159 0 
L 581 0 
L 581 3500 
L 1159 3500 
L 1159 2956 
Q 1366 3272 1645 3428 
Q 1925 3584 2291 3584 
Q 2894 3584 3203 3211 
Q 3513 2838 3513 2113 
z
" transform="scale(0.015625)"/>
      </defs>
      <use xlink:href="#DejaVuSans-50"/>
      <use xlink:href="#DejaVuSans-6f" transform="translate(56.677734 0)"/>
      <use xlink:href="#DejaVuSans-73" transform="translate(117.859375 0)"/>
      <use xlink:href="#DejaVuSans-69" transform="translate(169.958984 0)"/>
      <use xlink:href="#DejaVuSans-74" transform="translate(197.742188 0)"/>
      <use xlink:href="#DejaVuSans-69" transform="translate(236.951172 0)"/>
      <use xlink:href="#DejaVuSans-6f" transform="translate(264.734375 0)"/>
      <use xlink:href="#DejaVuSans-6e" transform="translate(325.916016 0)"/>
     </g>
    </g>
   </g>
   <g id="line2d_13">
    <path d="M 84.807273 183.886943 
L 86.761772 184.232717 
L 88.716272 179.510354 
L 90.670772 171.165873 
L 92.625272 170.271531 
L 94.579772 168.268665 
L 96.534271 159.859775 
L 98.488771 155.293467 
L 100.443271 154.320811 
L 102.397771 150.017418 
L 104.35227 148.263028 
L 106.30677 146.053682 
L 108.26127 142.068938 
L 110.21577 142.493509 
L 112.17027 141.763388 
L 114.124769 138.431866 
L 116.079269 135.943075 
L 118.033769 131.158783 
L 119.988269 128.73951 
L 121.942768 127.107432 
L 123.897268 120.926895 
L 125.851768 117.954079 
L 127.806268 114.727575 
L 129.760767 113.923691 
L 131.715267 111.778322 
L 133.669767 108.846559 
L 135.624267 107.971846 
L 137.578767 105.00458 
L 139.533266 103.730885 
L 141.487766 102.185011 
L 143.442266 101.280333 
L 145.396766 97.192561 
L 147.351265 96.236809 
L 149.305765 96.938349 
L 151.260265 95.155164 
L 153.214765 96.524102 
L 155.169265 95.994058 
L 157.123764 98.672564 
L 159.078264 100.415041 
L 161.032764 100.143428 
L 162.987264 99.445876 
L 164.941763 99.894311 
L 166.896263 100.999721 
L 168.850763 102.567104 
L 170.805263 105.894297 
L 172.759762 108.17598 
L 174.714262 110.21893 
L 176.668762 110.37005 
L 178.623262 111.87716 
L 180.577762 116.47363 
L 182.532261 118.151589 
L 184.486761 121.029485 
L 186.441261 124.412698 
L 188.395761 126.118066 
L 190.35026 127.523178 
L 192.30476 129.374286 
L 194.25926 133.877936 
L 196.21376 137.621655 
L 198.168259 140.542276 
L 200.122759 142.731286 
L 202.077259 147.103664 
L 204.031759 151.042397 
L 207.940758 161.373711 
L 209.895258 163.65112 
L 211.849758 165.36311 
L 213.804258 169.231153 
L 215.758757 171.620656 
L 217.713257 175.009865 
L 219.667757 179.760802 
L 221.622257 182.982954 
L 223.576757 184.610825 
L 225.531256 188.525989 
L 227.485756 190.167388 
L 229.440256 197.578012 
L 231.394756 199.776795 
L 233.349255 202.978336 
L 235.303755 206.574887 
L 237.258255 209.449727 
L 239.212755 214.990455 
L 241.167254 217.669764 
L 243.121754 219.401551 
L 245.076254 219.54477 
L 248.985254 225.524874 
L 250.939753 227.863425 
L 252.894253 228.045571 
L 254.848753 229.003165 
L 256.803253 230.989522 
L 258.757752 231.295519 
L 260.712252 232.060114 
L 262.666752 231.471357 
L 264.621252 233.090944 
L 266.575751 233.877033 
L 268.530251 234.489876 
L 270.484751 236.278294 
L 276.34825 233.262724 
L 278.30275 232.504358 
L 280.25725 233.112415 
L 282.21175 231.968807 
L 284.166249 230.49103 
L 286.120749 229.422612 
L 288.075249 227.212725 
L 290.029749 224.080562 
L 291.984249 218.888164 
L 293.938748 216.174752 
L 295.893248 213.22127 
L 297.847748 210.601041 
L 299.802248 210.296613 
L 301.756747 206.980994 
L 303.711247 203.425748 
L 305.665747 196.532164 
L 307.620247 193.509357 
L 309.574746 189.655495 
L 311.529246 186.178852 
L 313.483746 184.102174 
L 315.438246 178.609704 
L 319.347245 168.851819 
L 321.301745 166.285281 
L 323.256245 160.361741 
L 325.210745 158.371774 
L 327.165244 153.394808 
L 329.119744 146.304923 
L 331.074244 143.810141 
L 333.028744 140.51828 
L 334.983243 136.198866 
L 336.937743 132.689475 
L 338.892243 130.500231 
L 340.846743 125.888566 
L 342.801243 122.854749 
L 344.755742 117.633437 
L 346.710242 114.444379 
L 348.664742 107.862955 
L 350.619242 104.781292 
L 352.573741 101.043463 
L 354.528241 95.836173 
L 356.482741 93.639372 
L 358.437241 89.399407 
L 360.391741 83.88871 
L 362.34624 82.665867 
L 366.25524 75.241467 
L 368.20974 71.086894 
L 372.118739 68.890345 
L 374.073239 65.321578 
L 376.027739 62.350771 
L 379.936738 57.160288 
L 381.891238 56.266118 
L 383.845738 54.233759 
L 385.800238 52.369676 
L 387.754737 52.12017 
L 389.709237 48.486898 
L 391.663737 47.250012 
L 393.618237 48.524553 
L 395.572736 47.301684 
L 397.527236 48.583734 
L 399.481736 47.525857 
L 401.436236 46.300145 
L 403.390735 48.120389 
L 405.345235 47.578354 
L 407.299735 48.118347 
L 409.254235 48.342589 
L 411.208735 47.413993 
L 413.163234 49.826034 
L 417.072234 56.353013 
L 419.026734 59.58727 
L 420.981233 61.828744 
L 422.935733 63.637108 
L 424.890233 65.727486 
L 426.844733 67.251912 
L 428.799233 70.128833 
L 430.753732 71.172443 
L 432.708232 74.865273 
L 434.662732 74.568319 
L 436.617232 77.606241 
L 440.526231 88.094724 
L 442.480731 91.171654 
L 444.435231 95.305792 
L 446.38973 98.156517 
L 448.34423 101.460467 
L 450.29873 105.573414 
L 452.25323 110.70013 
L 454.20773 116.565914 
L 456.162229 120.728266 
L 458.116729 123.059357 
L 460.071229 126.389727 
L 462.025729 131.695402 
L 463.980228 134.850326 
L 465.934728 137.719624 
L 467.889228 142.321205 
L 471.798228 148.435876 
L 473.752727 153.108595 
L 473.752727 153.108595 
" clip-path="url(#p4c3f020b30)" style="fill: none; stroke: #ff0000; stroke-width: 1.5; stroke-linecap: square"/>
   </g>
   <g id="patch_3">
    <path d="M 65.36 223.98036 
L 65.36 41.628614 
" style="fill: none; stroke: #000000; stroke-width: 0.8; stroke-linejoin: miter; stroke-linecap: square"/>
   </g>
   <g id="patch_4">
    <path d="M 84.807273 246.04 
L 475.707227 246.04 
" style="fill: none; stroke: #000000; stroke-width: 0.8; stroke-linejoin: miter; stroke-linecap: square"/>
   </g>
  </g>
  <g id="text_15">
   <!-- Kalman filter improves accuracy of system state measurement -->
   <g transform="translate(62.90625 14.878125) scale(0.12 -0.12)">
    <defs>
     <path id="DejaVuSans-4b" d="M 628 4666 
L 1259 4666 
L 1259 2694 
L 3353 4666 
L 4166 4666 
L 1850 2491 
L 4331 0 
L 3500 0 
L 1259 2247 
L 1259 0 
L 628 0 
L 628 4666 
z
" transform="scale(0.015625)"/>
     <path id="DejaVuSans-61" d="M 2194 1759 
Q 1497 1759 1228 1600 
Q 959 1441 959 1056 
Q 959 750 1161 570 
Q 1363 391 1709 391 
Q 2188 391 2477 730 
Q 2766 1069 2766 1631 
L 2766 1759 
L 2194 1759 
z
M 3341 1997 
L 3341 0 
L 2766 0 
L 2766 531 
Q 2569 213 2275 61 
Q 1981 -91 1556 -91 
Q 1019 -91 701 211 
Q 384 513 384 1019 
Q 384 1609 779 1909 
Q 1175 2209 1959 2209 
L 2766 2209 
L 2766 2266 
Q 2766 2663 2505 2880 
Q 2244 3097 1772 3097 
Q 1472 3097 1187 3025 
Q 903 2953 641 2809 
L 641 3341 
Q 956 3463 1253 3523 
Q 1550 3584 1831 3584 
Q 2591 3584 2966 3190 
Q 3341 2797 3341 1997 
z
" transform="scale(0.015625)"/>
     <path id="DejaVuSans-6c" d="M 603 4863 
L 1178 4863 
L 1178 0 
L 603 0 
L 603 4863 
z
" transform="scale(0.015625)"/>
     <path id="DejaVuSans-20" transform="scale(0.015625)"/>
     <path id="DejaVuSans-66" d="M 2375 4863 
L 2375 4384 
L 1825 4384 
Q 1516 4384 1395 4259 
Q 1275 4134 1275 3809 
L 1275 3500 
L 2222 3500 
L 2222 3053 
L 1275 3053 
L 1275 0 
L 697 0 
L 697 3053 
L 147 3053 
L 147 3500 
L 697 3500 
L 697 3744 
Q 697 4328 969 4595 
Q 1241 4863 1831 4863 
L 2375 4863 
z
" transform="scale(0.015625)"/>
     <path id="DejaVuSans-72" d="M 2631 2963 
Q 2534 3019 2420 3045 
Q 2306 3072 2169 3072 
Q 1681 3072 1420 2755 
Q 1159 2438 1159 1844 
L 1159 0 
L 581 0 
L 581 3500 
L 1159 3500 
L 1159 2956 
Q 1341 3275 1631 3429 
Q 1922 3584 2338 3584 
Q 2397 3584 2469 3576 
Q 2541 3569 2628 3553 
L 2631 2963 
z
" transform="scale(0.015625)"/>
     <path id="DejaVuSans-70" d="M 1159 525 
L 1159 -1331 
L 581 -1331 
L 581 3500 
L 1159 3500 
L 1159 2969 
Q 1341 3281 1617 3432 
Q 1894 3584 2278 3584 
Q 2916 3584 3314 3078 
Q 3713 2572 3713 1747 
Q 3713 922 3314 415 
Q 2916 -91 2278 -91 
Q 1894 -91 1617 61 
Q 1341 213 1159 525 
z
M 3116 1747 
Q 3116 2381 2855 2742 
Q 2594 3103 2138 3103 
Q 1681 3103 1420 2742 
Q 1159 2381 1159 1747 
Q 1159 1113 1420 752 
Q 1681 391 2138 391 
Q 2594 391 2855 752 
Q 3116 1113 3116 1747 
z
" transform="scale(0.015625)"/>
     <path id="DejaVuSans-76" d="M 191 3500 
L 800 3500 
L 1894 563 
L 2988 3500 
L 3597 3500 
L 2284 0 
L 1503 0 
L 191 3500 
z
" transform="scale(0.015625)"/>
     <path id="DejaVuSans-63" d="M 3122 3366 
L 3122 2828 
Q 2878 2963 2633 3030 
Q 2388 3097 2138 3097 
Q 1578 3097 1268 2742 
Q 959 2388 959 1747 
Q 959 1106 1268 751 
Q 1578 397 2138 397 
Q 2388 397 2633 464 
Q 2878 531 3122 666 
L 3122 134 
Q 2881 22 2623 -34 
Q 2366 -91 2075 -91 
Q 1284 -91 818 406 
Q 353 903 353 1747 
Q 353 2603 823 3093 
Q 1294 3584 2113 3584 
Q 2378 3584 2631 3529 
Q 2884 3475 3122 3366 
z
" transform="scale(0.015625)"/>
     <path id="DejaVuSans-75" d="M 544 1381 
L 544 3500 
L 1119 3500 
L 1119 1403 
Q 1119 906 1312 657 
Q 1506 409 1894 409 
Q 2359 409 2629 706 
Q 2900 1003 2900 1516 
L 2900 3500 
L 3475 3500 
L 3475 0 
L 2900 0 
L 2900 538 
Q 2691 219 2414 64 
Q 2138 -91 1772 -91 
Q 1169 -91 856 284 
Q 544 659 544 1381 
z
M 1991 3584 
L 1991 3584 
z
" transform="scale(0.015625)"/>
     <path id="DejaVuSans-79" d="M 2059 -325 
Q 1816 -950 1584 -1140 
Q 1353 -1331 966 -1331 
L 506 -1331 
L 506 -850 
L 844 -850 
Q 1081 -850 1212 -737 
Q 1344 -625 1503 -206 
L 1606 56 
L 191 3500 
L 800 3500 
L 1894 763 
L 2988 3500 
L 3597 3500 
L 2059 -325 
z
" transform="scale(0.015625)"/>
    </defs>
    <use xlink:href="#DejaVuSans-4b"/>
    <use xlink:href="#DejaVuSans-61" transform="translate(63.826172 0)"/>
    <use xlink:href="#DejaVuSans-6c" transform="translate(125.105469 0)"/>
    <use xlink:href="#DejaVuSans-6d" transform="translate(152.888672 0)"/>
    <use xlink:href="#DejaVuSans-61" transform="translate(250.300781 0)"/>
    <use xlink:href="#DejaVuSans-6e" transform="translate(311.580078 0)"/>
    <use xlink:href="#DejaVuSans-20" transform="translate(374.958984 0)"/>
    <use xlink:href="#DejaVuSans-66" transform="translate(406.746094 0)"/>
    <use xlink:href="#DejaVuSans-69" transform="translate(441.951172 0)"/>
    <use xlink:href="#DejaVuSans-6c" transform="translate(469.734375 0)"/>
    <use xlink:href="#DejaVuSans-74" transform="translate(497.517578 0)"/>
    <use xlink:href="#DejaVuSans-65" transform="translate(536.726562 0)"/>
    <use xlink:href="#DejaVuSans-72" transform="translate(598.25 0)"/>
    <use xlink:href="#DejaVuSans-20" transform="translate(639.363281 0)"/>
    <use xlink:href="#DejaVuSans-69" transform="translate(671.150391 0)"/>
    <use xlink:href="#DejaVuSans-6d" transform="translate(698.933594 0)"/>
    <use xlink:href="#DejaVuSans-70" transform="translate(796.345703 0)"/>
    <use xlink:href="#DejaVuSans-72" transform="translate(859.822266 0)"/>
    <use xlink:href="#DejaVuSans-6f" transform="translate(898.685547 0)"/>
    <use xlink:href="#DejaVuSans-76" transform="translate(959.867188 0)"/>
    <use xlink:href="#DejaVuSans-65" transform="translate(1019.046875 0)"/>
    <use xlink:href="#DejaVuSans-73" transform="translate(1080.570312 0)"/>
    <use xlink:href="#DejaVuSans-20" transform="translate(1132.669922 0)"/>
    <use xlink:href="#DejaVuSans-61" transform="translate(1164.457031 0)"/>
    <use xlink:href="#DejaVuSans-63" transform="translate(1225.736328 0)"/>
    <use xlink:href="#DejaVuSans-63" transform="translate(1280.716797 0)"/>
    <use xlink:href="#DejaVuSans-75" transform="translate(1335.697266 0)"/>
    <use xlink:href="#DejaVuSans-72" transform="translate(1399.076172 0)"/>
    <use xlink:href="#DejaVuSans-61" transform="translate(1440.189453 0)"/>
    <use xlink:href="#DejaVuSans-63" transform="translate(1501.46875 0)"/>
    <use xlink:href="#DejaVuSans-79" transform="translate(1556.449219 0)"/>
    <use xlink:href="#DejaVuSans-20" transform="translate(1615.628906 0)"/>
    <use xlink:href="#DejaVuSans-6f" transform="translate(1647.416016 0)"/>
    <use xlink:href="#DejaVuSans-66" transform="translate(1708.597656 0)"/>
    <use xlink:href="#DejaVuSans-20" transform="translate(1743.802734 0)"/>
    <use xlink:href="#DejaVuSans-73" transform="translate(1775.589844 0)"/>
    <use xlink:href="#DejaVuSans-79" transform="translate(1827.689453 0)"/>
    <use xlink:href="#DejaVuSans-73" transform="translate(1886.869141 0)"/>
    <use xlink:href="#DejaVuSans-74" transform="translate(1938.96875 0)"/>
    <use xlink:href="#DejaVuSans-65" transform="translate(1978.177734 0)"/>
    <use xlink:href="#DejaVuSans-6d" transform="translate(2039.701172 0)"/>
    <use xlink:href="#DejaVuSans-20" transform="translate(2137.113281 0)"/>
    <use xlink:href="#DejaVuSans-73" transform="translate(2168.900391 0)"/>
    <use xlink:href="#DejaVuSans-74" transform="translate(2221 0)"/>
    <use xlink:href="#DejaVuSans-61" transform="translate(2260.208984 0)"/>
    <use xlink:href="#DejaVuSans-74" transform="translate(2321.488281 0)"/>
    <use xlink:href="#DejaVuSans-65" transform="translate(2360.697266 0)"/>
    <use xlink:href="#DejaVuSans-20" transform="translate(2422.220703 0)"/>
    <use xlink:href="#DejaVuSans-6d" transform="translate(2454.007812 0)"/>
    <use xlink:href="#DejaVuSans-65" transform="translate(2551.419922 0)"/>
    <use xlink:href="#DejaVuSans-61" transform="translate(2612.943359 0)"/>
    <use xlink:href="#DejaVuSans-73" transform="translate(2674.222656 0)"/>
    <use xlink:href="#DejaVuSans-75" transform="translate(2726.322266 0)"/>
    <use xlink:href="#DejaVuSans-72" transform="translate(2789.701172 0)"/>
    <use xlink:href="#DejaVuSans-65" transform="translate(2828.564453 0)"/>
    <use xlink:href="#DejaVuSans-6d" transform="translate(2890.087891 0)"/>
    <use xlink:href="#DejaVuSans-65" transform="translate(2987.5 0)"/>
    <use xlink:href="#DejaVuSans-6e" transform="translate(3049.023438 0)"/>
    <use xlink:href="#DejaVuSans-74" transform="translate(3112.402344 0)"/>
   </g>
  </g>
 </g>
 <defs>
  <clipPath id="p4c3f020b30">
   <rect x="65.36" y="34.56" width="427.84" height="211.48"/>
  </clipPath>
 </defs>
</svg>
